<?xml version="1.0"?><svg width="640" height="480" xmlns="http://www.w3.org/2000/svg">
 <metadata id="metadata5000">image/svg+xml</metadata>
 <g>
  <title>Layer 1</title>
  <path d="m-63.094002,608.116455c-12.474243,-0.269226 -16.379181,-0.667664 -16.910049,-1.724609c-0.337929,-0.672974 -0.750153,-3.302124 -1.753532,-11.182861c-0.395966,-3.109863 -1.085587,-7.544922 -1.532478,-9.855347c-1.06221,-5.491638 -1.032455,-6.874329 0.225266,-10.468567c1.811401,-5.17627 4.381256,-17.544312 4.433327,-21.336609c0.014244,-1.030212 -0.491661,-3.828125 -1.176376,-6.505676c-1.556076,-6.08606 -1.814087,-9.191284 -1.122635,-13.511719c0.294586,-1.841309 0.919106,-7.641357 1.387878,-12.889465c0.468666,-5.247925 1.110703,-12.324768 1.426781,-15.726105l0.574753,-6.18454l5.875313,-10.778351c3.23143,-5.927979 6.199059,-11.653046 6.594765,-12.722382c0.545288,-1.473267 0.714149,-2.689301 0.697517,-5.021637c-0.042267,-5.910278 -1.491486,-10.841064 -5.972458,-20.320129c-4.115631,-8.706207 -5.302773,-12.295319 -5.537674,-16.742798c-0.366516,-6.93573 1.711449,-10.818451 8.80587,-16.453735c1.815834,-1.442383 3.62635,-3.080719 4.023308,-3.640533c0.464706,-0.655762 1.237198,-1.153473 2.16991,-1.398438c1.099541,-0.288757 1.790604,-0.806915 2.870026,-2.151367c0.97525,-1.214874 1.675159,-1.771088 2.228642,-1.771088c0.924419,0 1.583416,-1.094727 2.202461,-3.658722c0.458084,-1.897369 0.191776,-2.834015 -1.591682,-5.598022c-1.494568,-2.316223 -2.382221,-4.950378 -2.657177,-7.884796c-0.351883,-3.756042 -1.334267,-7.150574 -3.876949,-13.396454c-3.245697,-7.972748 -4.264275,-11.906342 -5.13266,-19.821503c-0.65081,-5.931 -0.589966,-10.375824 0.163765,-11.965485c1.498016,-3.159546 7.496468,-8.708374 9.413864,-8.708374c1.364002,0 2.507549,-2.997711 2.134094,-5.594482c-0.181179,-1.260223 -0.544518,-1.915863 -1.724743,-3.112152c-0.822361,-0.833557 -1.49522,-1.82016 -1.49522,-2.192352c0,-0.966766 0.861355,-1.587341 1.845757,-1.32959c1.947426,0.509735 1.819016,-3.385437 -0.198891,-6.033722c-0.87735,-1.15152 -0.986908,-1.549988 -0.899391,-3.271881c0.087406,-1.719574 0.209103,-2.015289 0.98978,-2.404022c1.322422,-0.658539 1.763264,-2.142578 1.577538,-5.311035c-0.128815,-2.199921 -0.374214,-3.155334 -1.257217,-4.894958c-0.739769,-1.457642 -1.157024,-2.850891 -1.281139,-4.278687c-0.161934,-1.862152 -0.073071,-2.314636 0.738132,-3.758179c0.870533,-1.549194 0.939548,-2.002808 1.232025,-8.090454c0.585255,-12.180023 0.94165,-14.885742 2.714741,-20.611603c1.426308,-4.605804 3.115704,-7.829681 8.00663,-15.278488c5.528412,-8.419708 6.276089,-9.258087 8.250664,-9.251099c3.897449,0.01358 8.292276,1.852921 10.980326,4.595535c3.240408,3.30603 5.29007,3.406235 8.246078,0.403473c2.775074,-2.819016 4.215913,-5.878754 3.10541,-6.594574c-0.18641,-0.120163 -0.33879,-0.449493 -0.33879,-0.731812c0,-0.399963 0.295643,-0.464066 1.337235,-0.29039c1.679964,0.280136 4.099148,-0.848175 9.167018,-4.276062c6.253091,-4.229279 12.481637,-7.220032 21.242646,-10.199783c5.926943,-2.015732 9.54327,-2.955765 19.24584,-5.002686c10.86961,-2.293182 15.082874,-3.790085 15.082874,-5.358887c0,-0.197479 -0.321178,-0.662033 -0.713787,-1.032303c-2.58823,-2.441238 -4.437447,-13.053848 -3.37912,-19.392288c0.929325,-5.565659 3.990089,-13.601364 6.243767,-16.392181c0.68314,-0.846024 1.324314,-1.959183 1.424732,-2.473755c0.50103,-2.567566 0.94043,-3.657822 2.015125,-4.999298c1.37468,-1.71608 1.979019,-3.723709 1.677189,-5.571686c-0.118542,-0.726028 -0.887447,-2.548843 -1.708672,-4.050766c-1.572353,-2.875626 -1.761257,-3.589783 -1.069504,-4.042816c0.232975,-0.152618 2.596405,-0.231216 5.25222,-0.174774c2.980152,0.063385 4.828518,-0.029312 4.828518,-0.242111c0,-0.584351 -1.960609,-2.101852 -3.032906,-2.347504c-0.570797,-0.130798 -1.546169,-0.032837 -2.225681,0.223419c-2.009808,0.75798 -2.38306,0.234619 -2.275032,-3.190414c0.04977,-1.577393 0.003578,-2.867966 -0.102623,-2.867966c-0.106293,0 -0.754215,0.397614 -1.439899,0.883545c-1.296688,0.918961 -2.444664,1.15683 -2.444664,0.506531c0,-0.207352 0.414272,-0.943497 0.92065,-1.635956c0.758839,-1.037643 0.92271,-1.628799 0.931858,-3.363541c0.009899,-1.874924 -0.092636,-2.197906 -0.939648,-2.958328c-2.692772,-2.417786 -8.466549,0.334854 -10.434345,4.974548c-1.692028,3.989441 -1.011086,6.16777 2.369465,7.579727c1.191494,0.49765 2.39185,1.262619 2.66748,1.699982c0.477814,0.758408 0.444782,0.819641 -0.715405,1.325211c-0.891899,0.388672 -2.530182,0.53009 -6.140652,0.53009c-5.518913,0 -5.179058,0.213882 -4.546646,-2.861664c0.456142,-2.21817 0.062389,-3.910446 -1.251835,-5.379623c-0.78791,-0.880936 -1.048061,-0.969009 -2.239906,-0.759033c-1.327332,0.233902 -1.346703,0.221802 -1.234901,-0.770355c0.113224,-1.00618 0.109947,-1.007996 -1.852428,-1.007996c-2.380274,0 -2.640875,-0.280594 -4.632694,-4.987823c-2.01511,-4.762161 -2.028202,-5.000549 -0.43092,-7.818008c0.745373,-1.314728 1.825752,-3.368195 2.400875,-4.563202c0.998379,-2.074425 2.405325,-3.658279 3.249825,-3.658279c0.216324,0 1.530003,-0.736908 2.919209,-1.63755c3.506889,-2.273682 5.041302,-2.934364 6.658997,-2.867081c1.059708,0.044113 1.82687,-0.227409 3.204479,-1.13372c3.657646,-2.406563 4.722122,-2.901039 6.955109,-3.230888c4.433426,-0.654823 6.170303,-2.408157 9.943459,-10.03759l2.446815,-4.947617l-4.281891,4.65667c-2.355038,2.56115 -4.814545,5.000008 -5.465557,5.419609c-0.9813,0.632553 -2.500923,0.908028 -8.890232,1.611366c-4.23856,0.46666 -8.727818,1.089111 -9.97599,1.383316c-3.382118,0.797218 -3.684891,0.750946 -3.440151,-0.525314c0.175964,-0.91748 0.104248,-1.060173 -0.532101,-1.060173c-1.966211,0 -3.163496,-3.391014 -2.387806,-6.763184c0.558392,-2.427673 3.044586,-5.203835 6.208797,-6.933281c2.288799,-1.250984 2.417927,-1.386475 2.369011,-2.488045c-0.103291,-2.330078 -3.474705,-5.804825 -8.468939,-8.728493c-3.550364,-2.078354 -4.628443,-3.002541 -5.595022,-4.796089c-0.594791,-1.103806 -0.945625,-1.390076 -1.703182,-1.390076c-0.707634,0 -0.954187,-0.171539 -0.954187,-0.663696c0,-1.353004 -1.051685,-3.186394 -4.590822,-8.002945c-1.996036,-2.716621 -3.993938,-5.786377 -4.439766,-6.821739c-0.445757,-1.035385 -1.547213,-3.023281 -2.447668,-4.4175c-2.429661,-3.762131 -2.835376,-4.753956 -3.10119,-7.5807c-0.148249,-1.577637 -0.455276,-2.817902 -0.79417,-3.20842c-0.903437,-1.041157 -0.656483,-2.023144 0.846067,-3.364487c1.719657,-1.535172 5.820062,-3.765873 8.767093,-4.769447c5.034628,-1.714497 16.73876,-3.962353 25.074842,-4.8158c4.201672,-0.43018 5.350426,-1.295433 3.739094,-2.816273c-2.669975,-2.520069 -28.275682,1.223557 -35.818156,5.236763c-2.9194,1.553379 -3.820344,2.939812 -4.518039,6.952072c-0.641283,3.688679 -1.577861,4.517685 -2.47164,2.187904c-1.647922,-4.295444 -1.012723,-6.451328 2.741587,-9.304668c1.43641,-1.091599 2.961779,-2.174629 3.389701,-2.406601c1.539039,-0.834335 7.436413,-2.936596 11.589934,-4.131542c15.292362,-4.399332 18.275307,-4.366898 41.509125,0.451351c5.361404,1.111843 8.956764,1.66428 11.52079,1.770107c5.451729,0.225037 5.944344,-0.573219 1.714577,-2.778c-3.390106,-1.767044 -4.25592,-2.59491 -4.25592,-4.069225c0,-2.358673 2.90287,-5.095007 5.929939,-5.589771c1.118675,-0.182804 2.013741,0.055304 5.126457,1.364237c4.620392,1.942749 5.462601,2.391092 6.646858,3.537636c0.819557,0.79357 0.887733,1.018364 0.57283,1.890938c-0.500427,1.386801 -2.508614,3.448668 -4.077499,4.186472c-0.727234,0.342041 -1.322327,0.74036 -1.322327,0.885094c0,0.144806 1.334259,0.452888 2.964973,0.684669c3.203888,0.455463 6.653191,1.277348 7.616211,1.814835c1.003799,0.56028 0.699265,1.319454 -0.633842,1.580284c-0.679062,0.132877 -4.376724,0.170177 -8.217064,0.08287c-7.055199,-0.160397 -8.168396,-0.108006 -8.168396,0.384365c0,0.293564 2.864449,1.2257 5.591003,1.819508c0.931854,0.202873 6.040031,1.85886 11.351479,3.679874c13.553543,4.646782 19.556419,5.939877 30.327057,6.532894c9.183777,0.505669 31.623688,-0.534676 53.368805,-2.474239c13.675537,-1.21978 20.022354,-2.195221 36.93454,-5.676125c26.658173,-5.486912 44.258987,-9.932728 63.534378,-16.048309c3.913696,-1.241768 11.614044,-3.607628 17.111877,-5.257486c14.567657,-4.371689 22.560364,-7.438836 24.604797,-9.4419c0.401245,-0.39315 1.624237,-0.957706 2.717621,-1.254452c5.57666,-1.51358 11.860931,-5.82149 19.169281,-13.140648c3.339233,-3.344199 5.500916,-6.147343 5.816895,-7.543063c0.286652,-1.266785 1.150238,-1.486086 3.137146,-0.796666c3.1315,1.08662 9.107239,5.186498 8.795166,6.034343c-0.098663,0.268269 -0.033936,0.8867 0.14389,1.374438c0.264771,0.726138 0.186279,1.016608 -0.432983,1.603649c-0.416016,0.394276 -1.013336,0.964929 -1.327271,1.268086c-0.313995,0.303174 -1.915131,3.11656 -3.557892,6.25194c-1.642914,3.135384 -3.718811,6.715343 -4.61319,7.955531c-0.894379,1.240148 -1.556549,2.32735 -1.471649,2.41602c0.305023,0.318092 2.203125,-0.957947 4.065582,-2.733186c3.397583,-3.238517 7.672821,-9.449519 7.672821,-11.146791c0,-0.821844 0.582062,-1.20716 1.823578,-1.20716c3.830048,0 0.782562,7.241707 -10.445282,24.821666l-1.294861,2.027361l1.567108,1.913143c3.314728,4.046448 7.08078,6.57777 9.786224,6.57777c3.092804,0 3.344818,-1.826351 0.99826,-7.235273c-1.677124,-3.866121 -1.548492,-4.248039 1.3396,-3.974916c2.451721,0.231855 5.310547,1.79138 8.350769,4.555542c1.251709,1.137936 2.764557,2.396687 3.362,2.797176c0.597351,0.400555 1.184113,1.049809 1.30365,1.442822c0.11969,0.393028 0.815369,1.60474 1.546082,2.692596c1.334808,1.98735 2.330963,4.723167 2.334839,6.412449c0.001129,0.499287 0.601013,2.732075 1.333008,4.96191c1.053711,3.209599 1.552795,4.243 2.395966,4.960636l1.064911,0.906483l-0.662537,1.81839c-1.496521,4.107933 -7.245636,11.310364 -11.324097,14.186913l-1.599548,1.128166l1.006317,-2.218575c2.012421,-4.436531 0.959595,-4.912056 -3.628693,-1.638809c-1.438019,1.025932 -2.819183,1.32988 -2.819183,0.620461c0,-0.214569 0.55484,-1.491287 1.232971,-2.837158c0.678131,-1.345833 1.134216,-2.550011 1.01358,-2.67588c-0.290619,-0.303055 -6.478607,4.078407 -8.693909,6.155594c-0.960724,0.900856 -1.87973,2.002769 -2.042328,2.448807c-0.447083,1.226357 -2.713715,0.908401 -4.034271,-0.565964c-1.17511,-1.311989 -3.441833,-2.41111 -5.612183,-2.721375l-1.594055,-0.227814l0.227936,1.406525c0.331116,2.044456 -0.19104,2.367874 -2.721985,1.685875c-5.058136,-1.362915 -14.457184,-5.506813 -19.59668,-8.63979c-4.795929,-2.92366 -5.147491,-2.855034 -2.86557,0.559875c1.608887,2.407909 4.137665,5.495136 7.725647,9.432278c2.841217,3.117432 2.843414,3.599533 0.01828,3.99369c-2.20816,0.308067 -3.12915,-0.211807 -4.340179,-2.449654c-0.579773,-1.071396 -1.263672,-2.077728 -1.519867,-2.236229c-0.256104,-0.158539 -1.649841,-1.922264 -3.09726,-3.919365c-1.447296,-1.997108 -2.909271,-3.786156 -3.248932,-3.975708c-1.011292,-0.564457 -1.653259,-0.396339 -1.86618,0.488647c-0.292267,1.214226 0.517517,2.885597 2.849213,5.881271c1.134644,1.457817 2.017426,2.809525 1.961823,3.003929c-0.234467,0.818459 -1.812256,0.535728 -3.116516,-0.55854c-0.735626,-0.617172 -1.850891,-1.350204 -2.478241,-1.628983c-2.126648,-0.944984 -2.827606,0.230217 -1.061707,1.7799c1.236237,1.084877 1.260315,1.428101 0.169403,2.417351c-0.465973,0.422539 -0.847137,1.079948 -0.847137,1.460922c0,0.895874 1.212402,3.421005 2.243317,4.672318c0.555603,0.674301 0.806274,1.414017 0.806274,2.378471c0,1.225883 -0.084259,1.376892 -0.677643,1.215042c-0.80307,-0.218971 -0.825348,0.043312 -0.203094,2.399498c1.503387,5.69352 5.715454,15.070618 8.574188,19.088577c2.697021,3.790443 6.830597,8.004707 7.721069,7.871597c0.426117,-0.063705 0.952454,-0.696754 1.40686,-1.692093c0.728973,-1.596634 2.654449,-9.788109 3.696594,-15.726288c0.866302,-4.935287 1.848969,-6.891258 3.462341,-6.891258c0.580536,0 1.639679,0.818161 3.488861,2.694923c2.989746,3.034309 3.904297,3.270874 3.58255,0.926575c-0.491577,-3.581383 -0.582581,-5.388588 -0.271179,-5.388588c0.662659,0 3.700867,2.793724 4.91629,4.520645c3.88974,5.526375 4.911865,13.556168 2.731201,21.454308c-0.892822,3.233498 -1.807739,4.481339 -4.214478,5.747772c-2.961609,1.558464 -5.360352,1.986412 -11.171722,1.992996c-5.710938,0.006439 -7.454712,-0.477394 -7.454712,-2.068359c0,-0.935303 -0.426941,-1.472504 -2.464844,-3.101387c-0.662689,-0.529526 -2.421234,-2.596924 -3.90799,-4.594147c-1.486786,-1.997185 -3.079498,-3.996025 -3.53949,-4.441772l-0.836426,-0.810524l-0.385071,0.987236c-0.211792,0.542931 -0.763672,2.786491 -1.226501,4.985634c-0.899109,4.271133 -0.959991,4.44738 -1.919647,5.563782c-1.410583,1.640831 -3.941528,11.728233 -4.270447,17.021126c-0.17746,2.854279 -0.165619,2.911545 0.672058,3.243729c1.012177,0.401337 1.518158,1.729599 1.816681,4.769104c0.195374,1.988007 0.071686,2.630524 -1.337128,6.944916c-1.840729,5.637543 -2.691681,10.107224 -3.428619,18.006714c-1.482666,15.896774 -2.119751,20.088974 -3.93161,25.871643c-1.299225,4.14653 -3.575104,9.166794 -5.782898,12.756348c-3.648376,5.931793 -4.371307,9.152512 -3.74649,16.692566c0.417358,5.037323 0.679321,5.603699 2.750336,5.949127c0.7146,0.119202 1.64093,0.50528 2.058472,0.857864c0.651367,0.550095 0.725586,0.847687 0.523315,2.096329c-0.771515,4.762924 -7.655365,14.628479 -11.546692,16.548447c-1.317017,0.649857 -2.141815,1.437668 -3.51532,3.357941c-1.686127,2.357529 -3.821503,5.092133 -5.466339,6.999969c-0.914185,1.060181 -1.51944,0.577484 -1.014099,-0.808685c0.439636,-1.206055 0.224091,-1.610352 -0.720917,-1.352631c-0.670837,0.182953 -0.712158,0.100983 -0.507233,-1.004974c0.122711,-0.662384 1.441193,-3.828262 2.929871,-7.035324c3.329651,-7.17334 3.655914,-8.499222 3.065277,-12.459183c-0.340485,-2.282578 -0.352966,-3.596451 -0.055847,-5.898743c0.347931,-2.696625 0.727631,-3.693298 4.236938,-11.120667c4.458252,-9.435883 5.675537,-12.485764 5.86557,-14.696457l0.136871,-1.590271l-0.507416,1.14856c-0.522858,1.183517 -1.439392,1.524994 -1.75943,0.655487c-0.099701,-0.27121 0.384613,-1.901276 1.076355,-3.622375c0.691711,-1.721069 1.960022,-5.355728 2.818085,-8.076859c1.568176,-4.972 2.296661,-6.051285 2.745605,-4.067673c0.344452,1.521683 0.656891,0.257004 1.023071,-4.142029c0.24176,-2.903076 0.242859,-5.210281 0.003601,-7.372879c-0.335388,-3.031433 -1.585358,-10.033539 -1.838348,-10.297379c-0.143677,-0.149765 -2.491577,5.615921 -2.787231,6.844452c-0.110535,0.459442 -0.39328,0.835373 -0.628357,0.835373c-0.487579,0 -0.842987,-1.834076 -0.85611,-4.417435c-0.013611,-2.71814 -0.430878,-3.041718 -1.546356,-1.199036c-1.319153,2.179153 -3.004059,6.130417 -4.406738,10.334457c-1.359924,4.075897 -2.353241,6.005478 -4.392914,8.5345c-1.930328,2.393326 -2.456207,3.573715 -3.22171,7.231674c-0.852875,4.075348 -1.139954,4.807571 -2.158447,5.50354c-1.156799,0.790497 -2.556427,0.415787 -4.032928,-1.079742c-2.797821,-2.833862 -2.572815,-5.728516 0.904327,-11.634674c0.679779,-1.154785 1.236084,-2.307693 1.236084,-2.562119c0,-0.772217 -0.636108,-0.522263 -1.633423,0.641846c-2.50296,2.92157 -5.605255,-0.570206 -3.79483,-4.271286l0.729858,-1.492081l-1.378174,-1.326935c-0.757935,-0.729797 -1.37616,-1.55014 -1.373749,-1.822937c0.00238,-0.272812 0.307343,-1.504181 0.677734,-2.736267c1.151062,-3.829697 0.844635,-4.672989 -1.456635,-4.010315c-1.503052,0.432877 -2.094452,0.064667 -1.807922,-1.125748c0.276886,-1.150574 2.791412,-4.350555 4.009979,-5.102966c0.870209,-0.537354 0.961792,-0.525955 1.716095,0.213058c1.00824,0.987793 1.993042,0.993668 2.818451,0.016632c1.156006,-1.368286 6.73407,-4.961609 6.846771,-4.410599c0.056061,0.274078 -0.210754,1.775803 -0.592987,3.337158c-0.827454,3.379715 -0.884186,4.664673 -0.205902,4.664673c0.659393,0 1.482147,-1.28421 1.924408,-3.003906c0.442596,-1.720673 0.863678,-2.297043 1.678284,-2.297043c0.341064,0 1.1008,-0.623734 1.688171,-1.386063c0.587463,-0.762329 1.510193,-1.577103 2.050598,-1.810593c2.196564,-0.948868 5.096863,-6.040451 5.721771,-10.044968c0.189484,-1.21405 0.606537,-2.381058 1.011871,-2.830978c0.57843,-0.642227 0.750122,-1.558731 1.065735,-5.687317c0.542725,-7.101273 0.25473,-14.162354 -0.656036,-16.082069c-0.829559,-1.748756 -0.648407,-2.330376 1.518829,-4.877419c0.990265,-1.16391 1.639801,-1.596237 2.657257,-1.768723c1.935211,-0.328064 2.302521,-1.333084 2.468079,-6.754837c0.094849,-3.102882 -0.026184,-5.296753 -0.406586,-7.372101c-1.106934,-6.038277 -0.634796,-7.912079 1.903839,-7.556999l1.387329,0.194107l-0.213654,-1.379128c-0.310272,-2.003441 -2.369659,-6.135574 -3.753021,-7.530602c-0.970795,-0.978973 -1.285797,-1.124245 -1.686157,-0.777649c-0.554443,0.47998 -1.099548,2.718956 -1.428711,5.868843c-0.257538,2.46476 -0.940094,4.417557 -1.544098,4.417557c-0.232178,0 -0.850891,-0.428368 -1.374817,-0.951859c-1.148376,-1.147392 -1.426697,-0.918175 -1.928619,1.587669c-0.525421,2.623917 -0.466736,5.872604 0.133301,7.370224c0.279541,0.697701 0.50827,1.457664 0.50827,1.688698c0,0.231049 -0.952942,0.702789 -2.117859,1.048294c-3.296387,0.977821 -3.126434,0.892044 -2.682739,1.354759c1.041199,1.085945 0.43808,1.966385 -3.755371,5.482574c-3.332825,2.794693 -4.518219,4.043533 -6.014587,6.337105c-2.488098,3.813606 -4.418549,6.143646 -6.092621,7.353577l-1.382172,0.999039l-0.680878,-0.762131c-0.903503,-1.011612 -1.653107,-0.961044 -3.110779,0.209686c-1.437592,1.15451 -2.287537,2.527786 -2.287537,3.695831c0,1.465195 -4.40033,5.02034 -5.192017,4.194672c-0.491486,-0.512573 0.693359,-3.663986 2.155243,-5.732559c0.735779,-1.041107 1.593872,-2.44957 1.906769,-3.129837c1.329254,-2.889542 0.795685,-9.94487 -0.884552,-11.697205c-0.784515,-0.818207 -1.293732,-0.985619 -3.600525,-1.183517c-3.529999,-0.302803 -4.287384,-0.487061 -4.123718,-1.003265c0.153564,-0.48394 0.703156,-0.799088 4.350037,-2.493736c3.172119,-1.474083 4.965485,-3.122429 6.354828,-5.841087c1.555786,-3.044418 1.458069,-3.688499 -0.722809,-4.764587c-3.586731,-1.769585 -4.552521,-1.574829 -3.118622,0.62896c1.106262,1.700272 1.064972,1.969894 -0.302307,1.969894c-1.498535,0 -3.244812,0.782616 -5.174988,2.319237c-2.509079,1.997437 -3.650742,2.370216 -6.556671,2.14093c-4.978806,-0.392921 -9.385147,-2.246033 -10.342285,-4.349571c-0.564468,-1.240677 -1.178619,-1.278267 -1.178619,-0.072205c0,1.097427 0.955841,2.762375 2.705002,4.711975c3.6008,4.013069 4.82579,6.405342 4.249557,8.298561c-0.30513,1.002602 -1.656006,1.672432 -4.365829,2.164551c-1.245041,0.226128 -2.603668,0.702675 -3.019211,1.059021c-0.709167,0.608116 -0.723923,0.708046 -0.239792,1.63076c0.715347,1.363441 3.408813,3.010788 5.698196,3.485046c1.806488,0.37426 1.924591,0.462234 2.023682,1.50663c0.20018,2.109177 4.808548,5.587784 8.310486,6.272995c2.122498,0.415283 2.467529,1.662125 0.779144,2.815918c-0.79071,0.540314 -1.007935,0.513016 -3.865692,-0.485519c-3.273529,-1.143845 -15.599106,-7.07695 -17.959824,-8.645309l-1.448761,-0.962433l0.855698,-1.522911c0.470688,-0.837624 0.855774,-1.772301 0.855774,-2.077133c0,-0.304832 -0.744278,-1.111893 -1.653854,-1.793396c-4.323013,-3.239197 -6.105728,-3.151375 -5.181473,0.255066c0.215988,0.796318 0.570602,3.605377 0.787827,6.242371l0.394958,4.794548l-0.901062,1.986511c-0.49556,1.09259 -0.904709,2.433716 -0.909164,2.98024c-0.01416,1.730331 -0.587769,3.679932 -1.232666,4.189697c-0.342667,0.270752 -1.105881,0.497345 -1.695984,0.503525c-0.590134,0.006226 -1.133484,0.20015 -1.207138,0.431107c-0.209015,0.653763 -1.918518,-0.796249 -2.161575,-1.83345c-0.329819,-1.407578 -0.963425,-3.349609 -2.939896,-9.011673c-2.86058,-8.194855 -4.823868,-12.989746 -7.527405,-18.384857c-1.365753,-2.725609 -2.740097,-5.985695 -3.053909,-7.244659c-1.020798,-4.094971 -0.315125,-7.114143 1.980499,-8.47261c0.807693,-0.47805 1.049911,-0.465607 2.508377,0.12886c2.391663,0.974792 3.930283,1.1007 4.948364,0.404991c0.476715,-0.325722 1.980087,-0.882942 3.340851,-1.238144c3.526794,-0.920715 9.390411,-3.608505 13.183136,-6.042862c1.789856,-1.148842 3.403854,-2.088791 3.586624,-2.088791c0.182663,0 0.754913,0.494698 1.271439,1.099327c0.842255,0.985886 1.077499,1.076309 2.279617,0.875809c1.771698,-0.295464 7.782104,-2.625023 8.762344,-3.396172l0.773193,-0.608231l-1.100677,-1.598549c-2.242599,-3.256783 -0.335831,-3.827057 4.576447,-1.368729c2.997025,1.499763 3.873978,1.745613 3.873978,1.085892c0,-0.768509 -0.720001,-1.743774 -1.287476,-1.743774c-1.35173,0 -6.505966,-5.298622 -6.505966,-6.688309c0,-0.188225 0.762405,-1.392754 1.694214,-2.676788c0.931854,-1.283981 1.694229,-2.485138 1.694229,-2.669212c0,-0.184052 0.152512,-0.334663 0.338852,-0.334663c0.186386,0 0.338806,0.824402 0.338806,1.831963c0,1.729187 0.092621,1.925034 1.650665,3.491211c2.470444,2.483536 10.100784,6.622658 13.339859,7.236404c1.694244,0.320961 2.005585,-0.470779 0.821655,-2.089638c-1.658447,-2.267708 -1.471313,-4.464531 0.379791,-4.459801c1.262878,0.003159 2.555511,0.965897 5.080231,3.783424l2.149353,2.398727l-0.187561,-1.460609c-0.103088,-0.803329 -0.858276,-3.665886 -1.678192,-6.361198c-2.059601,-6.770584 -2.033936,-6.592339 -1.080566,-7.526398c0.668121,-0.654694 0.931519,-0.723381 1.518066,-0.395943c1.05069,0.586441 0.867157,-0.13456 -0.293549,-1.153076c-1.839417,-1.614281 -3.701355,-2.115303 -6.851318,-1.843567c-1.550415,0.133728 -5.051392,0.295113 -7.779572,0.35862c-5.920746,0.137787 -9.13884,0.611626 -11.792862,1.736351c-5.6745,2.404724 -12.233688,4.000069 -18.307526,4.452766c-5.507706,0.4105 -6.448288,0.5942 -6.448288,1.259415c0,0.261368 -0.681198,0.789497 -1.513596,1.173546c-0.832443,0.383987 -2.205307,1.194626 -3.050797,1.801331c-2.377594,1.706047 -4.254654,2.464821 -6.118668,2.473335c-3.326981,0.015137 -4.3423,1.643677 -4.023911,6.453941c0.238434,3.602737 -0.113388,5.61351 -1.24469,7.113495c-1.480225,1.962593 -2.796616,0.669754 -4.737106,-4.652542c-0.641449,-1.759583 -1.359436,-3.120598 -1.795715,-3.404106c-0.399689,-0.259796 -1.823578,-0.560577 -3.164185,-0.668388c-1.753571,-0.141006 -3.410828,-0.605255 -5.906204,-1.654579c-4.076172,-1.713982 -6.688705,-2.113289 -13.851807,-2.117249c-2.70282,-0.001434 -8.725876,-0.246773 -13.384583,-0.545158c-4.658722,-0.298409 -10.127838,-0.546486 -12.153641,-0.551323c-3.262863,-0.007774 -3.755859,0.072525 -4.319519,0.703629c-0.74585,0.834869 -5.315475,2.414345 -8.158173,2.819763c-1.344055,0.191727 -2.203217,0.528168 -2.662949,1.042839c-0.687454,0.7696 -1.123978,0.926582 -3.513687,1.263214c-2.169342,0.305664 -7.414665,3.223198 -8.980934,4.995354c-2.515831,2.846573 -1.750801,2.996964 2.516212,0.494705c2.960434,-1.735977 6.603439,-3.516678 8.273926,-4.044334l0.819092,-0.258705l-0.679047,0.900223c-0.839035,1.112518 -2.258698,2.339478 -3.912933,3.382057c-2.947739,1.857582 -8.736618,9.471046 -8.736618,11.49028c0,0.998146 1.234917,0.620041 3.04747,-0.932961c2.83461,-2.428749 4.150085,-3.445679 4.457565,-3.445679c0.450394,0 0.340195,0.991196 -0.240356,2.161957c-0.290848,0.586578 -0.480316,1.218254 -0.421112,1.403557c0.059204,0.185364 1.326447,-0.467316 2.816086,-1.450394c4.594208,-3.031975 5.827103,-3.509377 10.079132,-3.903015c2.096191,-0.194084 6.160461,-0.684059 9.031738,-1.088875c6.47522,-0.912819 6.931061,-0.805435 10.301819,2.427582c4.433609,4.252342 8.255768,6.410721 13.055573,7.372421c4.35582,0.872749 6.250839,0.618164 7.514633,-1.00959c0.416092,-0.536049 1.098282,-0.738739 2.950851,-0.876991c2.252258,-0.168076 2.466644,-0.120186 3.28476,0.733032c0.730637,0.762024 0.875259,1.236618 0.875259,2.872589c0,2.349991 0.21405,2.410782 2.596451,0.737473c2.215332,-1.555969 3.816589,-3.604721 5.259476,-6.729195c2.119293,-4.588837 3.598434,-3.057159 3.221252,3.335365c-0.245239,4.156265 -1.210068,7.489319 -2.748505,9.494904c-1.771072,2.308975 -2.299805,5.208939 -2.490814,13.663635c-0.178223,7.884766 0.194687,11.357574 1.334793,12.433792c1.389053,1.310974 1.399857,1.770935 0.077835,3.29715c-1.538971,1.77652 -1.772125,3.428284 -1.019653,7.222946c0.299713,1.511505 0.459885,2.891541 0.356079,3.066788c-0.246704,0.416382 -1.576508,0.406815 -2.650345,-0.018982c-1.120941,-0.444427 -3.272018,-2.49144 -4.3965,-4.183716c-0.494446,-0.744186 -1.292374,-2.768051 -1.773163,-4.497437c-0.979172,-3.522949 -2.647461,-7.591003 -3.112839,-7.591003c-0.168152,0 -0.873108,0.639587 -1.566574,1.421249c-0.69342,0.781723 -1.377197,1.346329 -1.519241,1.254715c-0.142105,-0.091629 -0.809235,-1.32756 -1.482239,-2.746506c-1.945114,-4.10025 -4.378357,-6.644028 -6.35556,-6.644028c-0.465485,0 -2.538757,1.854782 -5.925186,5.300964c-2.864914,2.915573 -5.450912,5.30101 -5.746689,5.30101c-0.479111,0 -0.473862,-0.105728 0.048721,-0.971817c2.0905,-3.465073 9.990692,-12.194626 10.75795,-11.887512c0.909698,0.364075 2.091156,-0.158264 2.506058,-1.108109c0.521286,-1.193115 0.520172,-1.197754 -0.365387,-1.546417c-1.062317,-0.418221 -4.699081,0.155167 -7.62085,1.20153c-6.91684,2.477074 -8.254837,1.766075 -4.323685,-2.297447c3.163147,-3.269562 2.991608,-4.030106 -1.305573,-5.789841c-2.583817,-1.05809 -2.952316,-0.960884 -3.756317,0.990814c-1.018112,2.471611 -4.300186,4.75457 -7.99855,5.563614c-1.699341,0.37175 -2.15152,0.320869 -5.076218,-0.570908c-4.301712,-1.31163 -5.344864,-1.560959 -5.565796,-1.330475c-0.660645,0.688988 0.65947,5.552986 1.841812,6.78611c0.508881,0.530724 1.447845,0.643196 6.483948,0.776573c4.176468,0.110596 6.177231,0.30368 6.880508,0.664078c2.429169,1.244843 1.218948,2.049057 -6.141785,4.08136c-9.231812,2.548813 -9.719131,2.856552 -9.524796,6.014587c0.091171,1.481644 0.251099,1.800201 1.256973,2.505127c1.801468,1.262497 3.613815,1.644577 7.911606,1.667984c3.878098,0.021072 3.981293,0.041962 3.981476,0.80452c0.000305,1.722992 -3.402817,4.696121 -7.365326,6.434586c-3.747116,1.643951 -3.816589,1.652298 -3.816589,0.459213c0,-1.252014 -0.553406,-1.78952 -3.339508,-3.243393c-1.504028,-0.784866 -3.066071,-2.083725 -5.179108,-4.306473c-3.980927,-4.187485 -4.695938,-5.368073 -5.244713,-8.659515c-0.54361,-3.259918 -1.54483,-5.52475 -2.881371,-6.517334c-1.561554,-1.159615 -2.086464,-0.704285 -1.813637,1.573242c0.202492,1.690186 0.142319,1.98143 -0.547569,2.651779c-0.426331,0.414246 -0.893532,0.753113 -1.038162,0.753113c-0.453033,0 -0.973511,1.333313 -1.344444,3.444412c-0.421982,2.401627 -0.779915,2.871521 -3.68631,4.838745c-3.099091,2.09761 -3.185143,2.245834 -2.91291,5.017288l0.22924,2.33313l-1.199898,-0.234711c-1.059532,-0.207382 -1.245262,-0.130539 -1.589424,0.657257c-0.264412,0.605209 -0.287849,1.263641 -0.073074,2.04808c0.439758,1.606232 1.53862,1.720215 2.817558,0.292328c1.143593,-1.276794 3.9813,-2.712616 6.032196,-3.052231c1.372421,-0.227188 1.440193,-0.196716 1.440193,0.648315c0,0.591904 -0.529427,1.423447 -1.592377,2.500931l-1.592278,1.614258l0.936661,0.371414c0.515144,0.204239 1.4674,0.371384 2.115967,0.371384c1.773087,0 2.654984,1.13591 3.169945,4.083344c0.813904,4.658112 1.859344,6.165253 4.27668,6.165253c0.551926,0 0.958313,0.288437 1.206421,0.856339c0.438919,1.004623 1.143845,1.229095 5.08461,1.619171c1.612473,0.159561 3.289749,0.53447 3.727341,0.83316c0.437439,0.298599 3.458649,1.189545 6.713562,1.979843c3.254944,0.790298 6.039551,1.563538 6.187897,1.718246c0.1483,0.154739 -0.541534,1.258331 -1.533035,2.452438c-3.336807,4.018463 -7.088562,12.405777 -7.150757,15.98558c-0.031097,1.791504 0.029541,1.953033 0.774811,2.062958c0.444672,0.065582 1.233597,-0.208496 1.752945,-0.608978l0.944473,-0.72821l0.241623,2.353577c0.27417,2.670258 -0.013855,8.054581 -0.50264,9.395401c-0.350632,0.961823 -1.301147,1.453323 -2.1521,1.112762c-0.290085,-0.116074 -0.934357,-0.823502 -1.431686,-1.571884c-1.88295,-2.833786 -2.985184,-2.070724 -3.17099,2.195221c-0.102707,2.359833 -0.248444,2.984985 -0.805374,3.455261c-0.573593,0.484421 -0.641296,0.811676 -0.433365,2.095001c0.301514,1.861679 5.171707,12.214874 6.777756,14.408707c1.476944,2.017166 2.30365,4.351913 3.041718,8.588913c0.740021,4.248795 0.920944,4.596893 2.389267,4.596893c0.999573,0 1.19632,0.139877 1.36702,0.971786c0.41748,2.035049 1.267288,4.032349 2.922882,6.870056c3.31749,5.685989 4.006439,6.946838 4.006439,7.331894c0,0.236557 -0.563705,0.351593 -1.440048,0.2939c-1.370956,-0.090179 -1.445663,-0.044113 -1.554977,0.95903c-0.12384,1.136734 0.327744,3.107529 1.194702,5.213669l0.543289,1.319977l4.654755,-0.083008l4.654663,-0.083099l1.480072,1.111816c0.814072,0.61145 1.520386,1.327057 1.569473,1.590271c0.103973,0.557465 -1.701752,1.715393 -2.674942,1.715393c-0.823639,0 -2.396606,-0.825165 -2.986832,-1.567017c-0.748154,-0.940094 -1.137177,-0.639832 -0.926453,0.715088c0.260727,1.675568 0.77858,2.265594 1.988281,2.265594c1.444305,0 2.222076,0.553955 2.476913,1.764038c0.292664,1.389618 0.594986,1.341339 1.303558,-0.20813c0.744797,-1.629059 1.035721,-1.390625 3.171936,2.598663c1.896225,3.54126 4.396851,6.548706 6.276352,7.548798c2.278961,1.212585 2.401031,0.668274 0.395416,-1.761719c-1.576981,-1.910583 -3.522552,-5.163513 -3.522552,-5.889282c0,-0.116516 0.876755,0.497284 1.94838,1.363983c1.637497,1.324554 3.483231,2.356689 3.469543,1.940491c-0.001923,-0.061737 -0.210663,-0.82785 -0.463791,-1.702484c-0.921463,-3.185181 0.966583,-7.068024 3.437225,-7.068024c1.754364,0 3.129578,1.59906 3.129578,3.63913c0,0.865173 -0.22879,2.249207 -0.508316,3.07547c-0.888641,2.626892 -0.699142,3.613922 1.009018,5.256073c0.834473,0.802216 1.570526,1.458557 1.635513,1.458557c0.065125,0 -0.040421,-0.808105 -0.234406,-1.795868c-0.305801,-1.556732 -0.26413,-1.965149 0.312897,-3.068359c0.366043,-0.699951 0.841324,-1.331177 1.056107,-1.402802c0.219223,-0.073029 0.648132,0.692108 0.977478,1.743195c0.936279,2.988831 2.345047,6.049072 3.813019,8.283051c1.577515,2.400818 3.571411,4.722382 4.05571,4.722382c0.184464,0 0.409897,-1.312012 0.5009,-2.915497c0.181793,-3.199707 1.367508,-6.49292 3.117645,-8.658295c1.811127,-2.240906 2.810104,-1.332245 3.90126,3.54834c0.381943,1.70871 0.999374,3.72998 1.371918,4.49176c0.407578,0.833038 0.677658,2.082672 0.677658,3.135162c0,1.806091 0.636322,5.52298 1.510696,8.823883c0.660797,2.494568 2.07576,11.276337 1.854095,11.507385c-0.095566,0.099701 -1.539795,-0.049896 -3.209412,-0.33252c-3.959061,-0.670288 -5.624374,-0.650146 -7.103821,0.085693c-1.001907,0.49823 -1.393158,0.530457 -2.266205,0.18689c-3.656769,-1.439667 -8.821777,-6.094635 -11.586456,-10.442047c-3.541153,-5.568878 -8.514282,-9.37027 -13.991699,-10.695129c-2.643295,-0.639343 -2.85144,-0.742798 -6.207993,-3.08432c-3.166107,-2.208557 -5.370667,-3.236053 -9.295685,-4.332825c-5.457718,-1.524963 -9.266235,-1.066711 -13.574982,1.633392c-2.81398,1.763458 -4.579391,3.48822 -7.325272,7.156555c-1.33754,1.786835 -4.297226,5.157257 -6.576874,7.489655c-4.493408,4.597321 -5.129105,5.570038 -5.596344,8.563965c-0.169235,1.084991 -0.685249,2.543976 -1.146492,3.242279c-1.149155,1.739319 -3.100449,7.206085 -3.829208,10.72757c-0.419266,2.026215 -0.5998,4.414795 -0.593941,7.858612c0.009247,5.360809 0.488434,7.852448 2.051323,10.664917c0.945702,1.701965 1.035057,2.523834 0.306084,2.815582c-1.270432,0.508423 -3.94194,-1.639404 -4.364685,-3.509003c-0.278267,-1.230927 -1.636765,-1.979309 -2.397499,-1.32077c-1.450195,1.255188 -5.37973,9.790527 -6.952621,15.101685c-0.736771,2.488068 -2.033424,10.956238 -2.034859,13.289337c-0.001045,1.774445 0.510757,2.759735 1.27504,2.455109c0.548676,-0.21875 0.551468,-0.176605 0.041138,0.631561c-0.306953,0.486176 -0.950607,0.916138 -1.467911,0.98056c-1.23278,0.153381 -1.536797,0.979462 -3.924606,10.664063c-1.961327,7.954956 -4.173584,14.259613 -6.816612,19.425995c-0.991959,1.939178 -1.339996,2.322449 -2.29438,2.52594c-0.731796,0.156158 -1.821495,0.958893 -3.118111,2.297119c-1.386246,1.430695 -1.993202,1.867065 -1.993202,1.433105c0,-0.343262 0.613235,-2.707001 1.362709,-5.252808c0.749474,-2.545868 1.320496,-4.673065 1.268776,-4.726837c-0.051674,-0.053925 -1.044975,1.148712 -2.20726,2.672333c-2.631271,3.449371 -6.451782,7.891541 -16.870369,19.61557c-10.852589,12.212402 -12.535351,14.162506 -14.074287,16.310852c-0.790249,1.103119 -2.034458,2.257019 -3.155075,2.925568c-2.382225,1.4216 -3.78743,3.116028 -5.142498,6.201263c-1.33551,3.040649 -2.064129,6.369873 -2.360439,10.785858c-0.252632,3.764496 -0.94986,7.083405 -1.758255,8.37027c-0.296722,0.47229 -1.123699,1.169708 -1.83778,1.549591c-0.829296,0.441162 -1.377975,1.022095 -1.518917,1.60791c-0.256947,1.067413 0.245815,1.534393 1.660629,1.542633c1.367165,0.007751 1.434597,0.725098 0.290359,3.089081c-1.196674,2.472382 -1.776665,4.712463 -2.770004,10.698944c-0.403149,2.429504 -1.191372,5.610138 -1.75161,7.067902c-0.959358,2.49646 -1.040215,3.092102 -1.391136,10.248627c-0.204975,4.179016 -0.37463,11.653412 -0.377003,16.609772c-0.004269,8.692413 0.034061,9.219757 1.081341,14.8862c0.597103,3.231018 1.621544,7.656982 2.276478,9.835632c1.352856,4.500366 1.4062,5.095032 0.63612,7.102112c-0.422272,1.100647 -0.502392,2.032471 -0.335808,3.902222c0.280807,3.150513 2.781334,11.102539 4.949627,15.73999c1.468853,3.141541 1.860306,3.694153 3.192818,4.508606c1.118992,0.684021 2.03022,1.741638 3.461628,4.0177c2.806892,4.463074 2.834576,4.492126 3.437939,3.593811l0.492039,-0.732666l0.843594,0.820984c1.213879,1.181335 2.016048,3.008484 2.299786,5.238342c0.417988,3.28595 0.930092,4.156494 3.036358,5.162109c2.202755,1.051819 3.60046,1.008484 4.077793,-0.12616c0.684639,-1.627258 1.821777,-0.832214 4.043625,2.827148c0.678535,1.117737 1.348602,2.032104 1.489059,2.032104c0.140343,0 1.08873,-0.891052 2.107338,-1.980347c1.018677,-1.088928 4.215652,-4.022888 7.104362,-6.519714c2.888596,-2.496765 5.756287,-5.183716 6.372452,-5.971191c2.322327,-2.967529 2.924316,-1.619507 2.911629,6.519775c-0.012627,8.041687 -0.546371,10.595398 -2.859261,13.679382c-0.926643,1.235657 -1.67054,2.600586 -1.674278,3.07196c-0.003685,0.466431 0.399414,1.713867 0.895813,2.771973c0.905807,1.931091 1.195435,2.163025 4.10849,3.290039c0.612762,0.237305 1.262733,0.720825 1.444397,1.074768c0.515564,1.004639 -0.550774,1.368652 -5.190788,1.771545c-4.996063,0.433655 -132.204594,0.70813 -150.019585,0.323547zm108.370697,-155.769257c0.127468,-0.93573 -0.186874,-0.998932 -1.218849,-0.245026c-1.029144,0.75177 -0.946075,1.286957 0.17881,1.151947c0.667156,-0.079956 0.962532,-0.337616 1.040039,-0.906921zm93.838814,-324.947838c-0.191101,-0.597984 -2.183044,-1.777382 -2.698944,-1.598045c-0.630997,0.219391 1.258667,2.036522 2.117722,2.036522c0.423706,0 0.663498,-0.180962 0.581223,-0.438477zm-88.508892,-89.824127c0.631855,-0.481827 0.622787,-0.513977 -0.264088,-0.935425c-0.734867,-0.349201 -1.0228,-0.346039 -1.440838,0.015869c-0.397923,0.344379 -0.430836,0.567486 -0.138069,0.935448c0.490417,0.616261 1.020134,0.61171 1.842995,-0.015892zm58.7738,570.449181c-1.0672,-0.401611 -1.204224,-0.605652 -1.367851,-2.036682c-0.10006,-0.874634 -0.45356,-2.016296 -0.785515,-2.536804c-0.587006,-0.920471 -0.584099,-0.957458 0.102432,-1.340637c0.38826,-0.216736 1.82563,-0.443359 3.194069,-0.503662c1.368546,-0.060181 2.664017,-0.222778 2.878998,-0.361328c0.214981,-0.138489 0.898834,-1.076416 1.519684,-2.083984c1.579269,-2.562561 2.94165,-3.867554 6.731468,-6.446838c3.589294,-2.442993 7.952911,-6.677246 8.901291,-8.637512c0.515564,-1.065674 0.241089,-0.877686 -1.981033,1.356506c-1.418777,1.426392 -2.772469,2.52356 -3.008278,2.438171c-0.316429,-0.114624 -0.399902,-1.048401 -0.318558,-3.565308c0.104553,-3.23938 0.075378,-3.409973 -0.584496,-3.409973c-0.39373,0 -1.908707,1.164978 -3.498581,2.690552c-4.364197,4.187622 -12.305534,9.38092 -13.570457,8.874512c-0.300957,-0.120361 -0.7267,-0.843872 -0.946114,-1.607544c-0.329056,-1.145508 -0.302391,-1.690491 0.152222,-3.111023c1.089622,-3.404907 3.73069,-6.625916 25.041138,-30.539246c3.731415,-4.186951 6.480011,-7.733582 6.211029,-8.014038c-0.371811,-0.387878 -2.045364,1.073181 -7.186005,6.272705c-3.035614,3.070557 -5.840668,5.689209 -6.233421,5.819153c-1.809311,0.598877 -2.261757,-1.93689 -0.764709,-4.285706c1.662849,-2.609131 5.946327,-7.497742 8.893318,-10.149902c5.346832,-4.811829 9.394592,-7.222351 14.013916,-8.345703c3.711914,-0.90271 6.382751,-1.969299 11.099518,-4.432678c4.919678,-2.569275 7.678131,-4.254517 10.578186,-6.463013c1.273117,-0.969421 2.994431,-1.961182 3.82486,-2.203674c0.83403,-0.243652 1.80806,-0.835999 2.175644,-1.323364c1.58168,-2.097168 2.399109,-7.920349 1.679382,-11.962341c-0.2379,-1.335815 -2.0121,-8.233307 -3.94278,-15.327911c-3.738373,-13.737061 -4.52771,-15.860596 -8.393372,-22.580322c-1.185806,-2.06131 -2.693298,-4.861084 -3.349792,-6.22171c-0.65657,-1.360626 -1.518524,-2.831573 -1.915436,-3.26889c-0.828644,-0.913086 -2.050644,-1.061096 -2.050644,-0.248505c0,0.300659 1.209473,3.212585 2.687881,6.470764c4.759857,10.490723 6.050507,14.349396 10.833298,32.386658c3.39476,12.802429 3.354248,12.567749 2.374252,13.743103c-0.9646,1.156982 -1.180634,1.153625 -1.729996,-0.027161c-0.243164,-0.522461 -1.204468,-1.41217 -2.136292,-1.976868c-2.035141,-1.233337 -3.133347,-2.24707 -3.720306,-3.434235c-0.240326,-0.48587 -1.753723,-6.423309 -3.363235,-13.194275c-3.170319,-13.336884 -4.444489,-17.34494 -6.120514,-19.25238c-1.329941,-1.513458 -2.3367,-1.386383 -3.521332,0.444794c-1.166931,1.803925 -2.687775,6.686218 -3.267059,10.488312c-0.277756,1.822479 -0.723602,4.139954 -0.990845,5.149994c-0.267288,1.010101 -0.734756,4.961395 -1.03891,8.780762c-0.568298,7.137573 -0.882919,8.805237 -1.614609,8.558228c-0.703171,-0.237366 -1.665253,-4.803864 -1.48996,-7.071686c0.204239,-2.642181 -0.193878,-2.360565 -1.839188,1.301117c-1.552322,3.454926 -2.864075,7.687073 -3.330292,10.745483c-0.311172,2.04071 -0.482254,2.368896 -1.925598,3.693787c-0.871277,0.799866 -1.769531,1.914185 -1.996155,2.476318l-0.412048,1.022095l-1.039963,-1.315796c-1.433502,-1.813843 -2.101242,-1.548279 -5.486931,2.182007c-3.846207,4.237732 -6.173279,7.751831 -6.043678,9.126587c0.151459,1.606995 0.982483,1.490784 3.089302,-0.431946c2.124397,-1.938965 4.145592,-3.188171 4.522408,-2.795227c0.722794,0.754028 -3.202965,5.719421 -7.236237,9.152588c-1.269356,1.080566 -3.299126,2.557678 -4.510529,3.282532c-2.928261,1.752319 -9.920349,9.144531 -13.041092,13.787354c-2.884079,4.290771 -5.341866,7.083313 -7.019913,7.976196c-0.692772,0.36853 -1.341866,0.670166 -1.442451,0.670166c-0.480629,0 -0.01841,-1.312317 1.877228,-5.329529c2.590553,-5.489685 3.422234,-8.097534 4.536217,-14.224182c0.488678,-2.688171 1.591827,-7.856628 2.451378,-11.485474c1.299957,-5.488708 1.56797,-7.192139 1.59436,-10.131897c0.037445,-4.178162 -0.201004,-4.816833 -3.240128,-8.677185c-1.139374,-1.447449 -2.373405,-3.347351 -2.742142,-4.221985c-0.368843,-0.874542 -1.568993,-3.697113 -2.667191,-6.272217c-4.858452,-11.392578 -6.495125,-16.377228 -9.65799,-29.41571c-1.201683,-4.9534 -2.332062,-9.159851 -2.511909,-9.347443c-0.210243,-0.219238 -0.327126,1.641296 -0.327126,5.207275c0,9.884369 -1.441116,6.379608 -3.894386,-9.471069c-2.662628,-17.203583 -2.705093,-22.371643 -0.339745,-41.347839c0.654198,-5.247955 1.267555,-10.036774 1.363052,-10.641754c0.207031,-1.312317 1.36248,-2.558533 1.875801,-2.023132c0.681152,0.710388 1.035316,8.77478 0.819832,18.672699c-0.329811,15.160461 -0.013123,18.519012 2.855438,30.286316c1.293533,5.306366 3.058113,13.38504 3.921227,17.952759c1.731796,9.164703 2.383255,11.662201 3.04213,11.662201c0.590973,0 1.120087,-1.509735 1.391869,-3.971313c0.297478,-2.69458 -0.023598,-4.381836 -0.878021,-4.61499c-0.864143,-0.235596 -0.847885,-0.769318 0.051956,-1.707916c0.628792,-0.655701 0.974144,-0.724792 2.689079,-0.537842c1.949051,0.212494 1.968575,0.205444 2.07412,-0.749512c0.05854,-0.530304 -0.018303,-2.38089 -0.170876,-4.112457c-0.356224,-4.04303 -0.169449,-4.886749 1.052521,-4.753174c1.973534,0.215942 2.296524,-0.891235 0.751732,-2.577179l-1.014412,-1.107117l0.721436,-1.217499l0.721405,-1.217438l-0.688873,-1.294464c-1.129295,-2.122223 -1.943268,-7.750519 -1.282288,-8.865997c0.150688,-0.254181 0.677612,-0.315826 1.43483,-0.167664c0.846527,0.165619 1.283295,0.091339 1.493187,-0.254181c0.163101,-0.268524 0.301064,-2.396667 0.30674,-4.729187c0.01165,-4.857208 0.265327,-5.644806 2.178932,-6.764313c0.725342,-0.424347 1.458771,-1.03241 1.62986,-1.351318c0.410576,-0.765167 -0.260727,-1.602814 -1.284592,-1.602814c-0.856926,0 -1.846375,-0.843933 -1.846375,-1.574921c0,-0.255341 0.3601,-0.710205 0.800163,-1.010956c1.104721,-0.755066 1.250496,-2.086426 1.260529,-11.514679c0.009804,-9.195618 -0.368279,-13.177948 -1.630241,-17.175323c-0.827118,-2.61972 -0.893776,-3.294037 -0.9095,-9.188354c-0.017776,-6.738678 0.343803,-10.309052 1.682396,-16.609772c1.599991,-7.530975 2.371628,-8.488831 4.665161,-5.790771c1.269562,1.493561 1.309311,1.51236 1.091713,0.516663c-0.567505,-2.598114 -0.751595,-4.091064 -0.504402,-4.091064c0.611961,0 2.296387,1.838348 3.059944,3.339478c0.449867,0.88443 0.928024,1.608215 1.062561,1.608215c0.134544,0 0.287262,-2.025696 0.339455,-4.501526c0.080574,-3.82431 0.177635,-4.518097 0.645325,-4.611572c0.824295,-0.164764 3.22036,2.158722 6.20977,6.021606c1.466934,1.89563 3.44902,4.075745 4.404602,4.844635c2.345169,1.886932 5.387131,3.308441 6.662186,3.113312c1.147568,-0.17569 1.294708,-0.022736 1.484833,1.544067c0.184464,1.520233 -0.318878,2.373047 -1.803711,3.056641l-1.243362,0.572418l3.543762,0.29715c1.948944,0.163422 3.929428,0.489899 4.400833,0.725555c1.968903,0.984222 0.855026,2.438965 -2.353592,3.073608c-2.28949,0.452789 -3.256653,1.10733 -3.859207,2.611237c-0.260818,0.651062 -0.771057,1.403412 -1.133926,1.671692c-1.013474,0.749664 -1.444977,1.867737 -1.444977,3.743744c0,3.565247 3.888947,9.658569 7.586655,11.886902c3.186295,1.920197 14.914597,6.705811 15.753632,6.42807c0.355804,-0.117798 1.079514,0.163818 1.762207,0.685791c1.341629,1.025726 2.843231,1.802429 4.141968,2.142365c0.815491,0.21344 0.913162,0.141205 0.913162,-0.675964c0,-0.687286 0.216125,-0.97168 0.867783,-1.142365c2.216431,-0.5802 12.131638,1.040985 16.395676,2.680634c4.020798,1.546265 6.066223,1.799011 10.243469,1.265717c2.138702,-0.273071 3.900452,-0.695129 4.439789,-1.06369c0.611023,-0.417633 1.212845,-0.538025 1.900894,-0.380371c1.091156,0.249939 1.731567,-0.454132 1.731567,-1.903717c0,-1.481293 1.088196,-1.725952 9.487747,-2.132874c9.495468,-0.460083 13.554016,-1.210846 13.554016,-2.507263c0,-0.64798 -2.505463,-3.121582 -3.759125,-3.711121l-1.355652,-0.637573l2.218613,-1.221375c1.220123,-0.671844 2.218445,-1.431976 2.218445,-1.68927c0,-0.714966 -2.06456,-1.20047 -7.454636,-1.753143c-5.144211,-0.527405 -8.960037,-1.114227 -21.855804,-3.361176c-10.323715,-1.798798 -20.384216,-3.161407 -23.341476,-3.161407c-2.12854,0 -2.318771,-0.05365 -1.72406,-0.486176c0.367538,-0.267395 1.789368,-0.816284 3.159515,-1.219879c2.643082,-0.778351 4.255692,-1.6604 3.957138,-2.164124c-0.350647,-0.591614 -5.260025,-2.503021 -9.219208,-3.589233c-2.901077,-0.79599 -5.147919,-1.161621 -8.145523,-1.325623c-3.209106,-0.175812 -4.266586,-0.359467 -4.7052,-0.817413c-0.528641,-0.551849 -0.505432,-0.6492 0.352921,-1.478943l0.918945,-0.888153l-1.804672,-0.896729c-1.714722,-0.852051 -6.040207,-4.266113 -6.040207,-4.767548c0,-0.129608 1.399033,-0.119232 3.108978,0.023315c1.709991,0.142487 3.242126,0.173309 3.404709,0.068481c0.162613,-0.104767 0.25029,-0.527588 0.194763,-0.939575c-0.162979,-1.209503 1.179962,-1.648163 5.151245,-1.6828c5.302353,-0.046204 7.082977,-0.384674 7.857529,-1.493591c0.47113,-0.6745 1.06987,-0.985168 2.238037,-1.161194c0.877045,-0.132202 2.008484,-0.489777 2.514191,-0.7948c0.842789,-0.508209 1.081085,-0.501221 2.855881,0.082153c2.820953,0.927368 9.528122,4.172424 17.965378,8.691803l7.40036,3.964081l11.520889,-0.206787c8.007782,-0.143707 12.253357,-0.362579 13.922897,-0.718018c4.229401,-0.900146 5.609451,-1.809753 6.053329,-3.989868c0.229111,-1.124512 2.824814,-3.999786 3.610931,-3.999786c0.215149,0 0.866592,0.297821 1.447693,0.661743c2.067413,1.294983 5.630966,1.22287 5.630966,-0.11377c0,-1.419434 -13.025833,-6.391174 -25.564468,-9.757568c-3.55127,-0.953461 -9.65889,-2.781586 -13.572662,-4.062683c-9.520874,-3.116302 -11.100952,-3.341736 -16.110306,-2.298492c-4.565613,0.950714 -7.908524,2.462463 -10.364761,4.687042c-2.699646,2.445129 -3.289444,2.600739 -6.572769,1.734802c-2.145355,-0.565796 -3.332306,-0.681549 -5.251831,-0.51236c-2.424286,0.213776 -2.577164,0.177032 -6.803848,-1.635468c-5.479233,-2.34964 -6.34523,-2.983002 -6.081635,-4.448273c0.372116,-2.068481 -1.558594,-3.143402 -7.872513,-4.382751c-8.723969,-1.712494 -16.716614,-2.23407 -18.243629,-1.190613c-0.830566,0.567657 -4.4674,0.76886 -5.212654,0.288452c-0.160027,-0.103119 0.080368,-0.57489 0.534317,-1.048248c1.183548,-1.234467 1.028465,-1.599579 -0.679596,-1.599579c-0.827682,0 -1.595215,-0.152649 -1.705696,-0.338989c-0.333595,-0.562866 -0.623367,-4.824524 -0.393181,-5.781128c0.118225,-0.491364 0.615486,-1.389771 1.104851,-1.996368c2.478844,-3.07251 6.816849,-3.512115 13.172569,-1.335114c4.564362,1.563354 6.39386,1.859192 8.258682,1.33551c2.330109,-0.654327 2.268112,-1.687622 -0.281433,-4.691681c-0.838409,-0.987885 -1.863358,-1.794861 -2.497147,-1.966156c-0.837097,-0.226166 -1.074966,-0.48114 -1.074966,-1.151611c0,-0.792267 0.115005,-0.853424 1.440048,-0.766205c1.585068,0.104248 1.568848,0.131561 1.454132,-2.459625l-0.073349,-1.65799l1.639236,-0.108948c1.50795,-0.10022 1.647812,-0.187164 1.746765,-1.085175c0.212784,-1.929962 -1.773422,-5.542419 -6.361572,-11.570496c-3.786652,-4.974945 -4.869995,-6.877136 -4.901398,-8.605957c-0.022453,-1.234741 0.086464,-1.48175 0.692665,-1.572021c0.520409,-0.077362 1.254295,0.509491 2.651878,2.120453l1.932526,2.227417l-0.246353,-3.710693c-0.423233,-6.373871 -0.291168,-8.334473 0.677933,-10.059082c0.470673,-0.837616 1.608765,-2.180389 2.529251,-2.9841c1.765549,-1.541718 5.488373,-4.00705 5.706863,-3.779205c0.070923,0.073883 -0.106049,1.07962 -0.393036,2.23468c-0.605682,2.437897 -1.07045,8.765259 -0.743607,10.123413c0.316605,1.315704 1.688995,1.289673 2.185257,-0.041595c1.331207,-3.570221 1.907425,-6.532104 2.07901,-10.686584c0.22757,-5.509308 0.376999,-5.595947 3.878937,-2.248352l2.511917,2.401093l-0.529816,1.070343c-0.29129,0.588562 -1.192719,1.919769 -2.002945,2.958069c-0.810349,1.038269 -1.473328,2.042603 -1.473328,2.231964c0,1.157806 2.723984,4.665466 4.077011,5.25c0.689819,0.297974 1.005768,0.682007 1.005768,1.222382c0,1.299103 -0.726288,3.119812 -1.724945,4.324066c-1.23912,1.494415 -1.53363,3.688843 -1.043213,7.773346c0.512665,4.26944 1.57254,7.552948 2.970413,9.202576c1.329178,1.568451 1.362335,1.398651 0.477829,-2.449249c-0.814209,-3.54187 -0.861389,-6.823242 -0.149826,-10.415985c1.390213,-7.01947 4.283844,-10.50882 7.730728,-9.32251c2.176376,0.749237 2.384232,1.993439 0.90239,5.402039c-1.780701,4.095825 -3.11618,13.536926 -2.015305,14.246521c0.204117,0.131531 0.807846,-0.097626 1.34166,-0.509247c0.533859,-0.411591 1.099319,-0.748383 1.256775,-0.748383c0.157303,0 0.803329,0.556549 1.435516,1.236877c1.59729,1.718689 2.324356,1.600311 4.347183,-0.707947c2.382706,-2.718994 3.215057,-5.144897 3.035538,-8.846985c-0.116928,-2.409729 -0.309158,-3.15979 -1.268417,-4.947571c-0.621826,-1.159058 -1.41832,-2.680603 -1.769958,-3.381378l-0.639313,-1.274231l1.417816,-2.844452l1.417725,-2.844452l-0.928375,-1.652069c-0.653305,-1.162689 -0.864929,-1.915558 -0.714203,-2.541473c0.263153,-1.093689 -0.229141,-1.757568 -1.816711,-2.44928c-1.582458,-0.689636 -2.716599,-1.806091 -3.309296,-3.257599c-0.455704,-1.116119 -0.352386,-2.536163 0.184509,-2.536163c0.486191,0 3.275436,2.035522 4.169205,3.04248c4.056076,4.570038 8.884186,10.388824 9.304596,11.213684c0.639359,1.254578 0.389191,2.000183 -0.67131,2.000183c-1.382553,0 -1.738281,0.811584 -1.283112,2.927856c0.218048,1.01358 0.783325,2.712799 1.256058,3.775787c1.118835,2.515442 1.618881,6.679199 1.359451,11.319794c-0.233841,4.182281 -0.663773,6.137299 -2.143356,9.746887c-1.294815,3.158569 -1.581787,4.519775 -1.136063,5.388306c0.396347,0.772339 4.105423,3.680481 6.558365,5.14209c3.814316,2.272858 7.809921,3.21756 23.439819,5.542633c5.106613,0.759583 8.970642,0.666412 10.912598,-0.263245c0.585617,-0.280334 1.729279,-0.460052 2.541458,-0.399261c1.397842,0.104706 1.475143,0.167053 1.451004,1.170807c-0.014038,0.583099 -0.234222,2.049683 -0.489365,3.259125c-0.255112,1.209503 -0.352554,2.315094 -0.216492,2.457031c0.400436,0.417755 5.998032,0.197876 7.260132,-0.285004c0.587326,-0.224731 0.750565,-0.536224 0.693146,-1.322693c-0.056107,-0.768494 0.186066,-1.257782 0.958038,-1.935333c2.657135,-2.331787 4.78624,-11.450653 3.349945,-14.347473c-0.766846,-1.54657 -3.047836,-3.389679 -5.190277,-4.194122c-1.064011,-0.399323 -4.250076,-1.285095 -7.080261,-1.968323c-5.403854,-1.304413 -8.291229,-2.532135 -8.943253,-3.802856c-0.214432,-0.417908 -0.820679,-2.576355 -1.347031,-4.79657c-0.52655,-2.220184 -1.500198,-5.151276 -2.163696,-6.513458c-0.663528,-1.362213 -1.20639,-2.623047 -1.20639,-2.80191c0,-0.701691 1.115005,-0.260559 2.751175,1.088287c1.354126,1.116302 2.000107,1.413574 3.072037,1.413574c1.831924,0 2.775314,-0.779236 5.37381,-4.438568l2.187256,-3.080292l0.677719,4.283051l0.677933,4.28299l1.306259,-2.497284c1.617737,-3.092743 2.987549,-4.747284 4.67215,-5.643677c0.714233,-0.380035 3.540283,-1.080811 6.280121,-1.557251c6.394623,-1.11203 6.650024,-0.958618 3.753189,2.255096c-2.234787,2.479156 -4.309097,6.196808 -3.770721,6.75824c0.171036,0.178467 1.297028,0.368927 2.502197,0.423431l2.191101,0.09906l0.219116,1.597534c0.120392,0.878601 0.600296,2.866119 1.066238,4.41687c0.465942,1.550598 0.95311,3.335907 1.082474,3.967499c0.248505,1.211761 1.282227,2.209106 2.290207,2.209106c0.331223,0 0.602234,-0.229553 0.602234,-0.51004c0,-0.703857 1.176773,-1.497681 3.203934,-2.161316c3.378433,-1.10611 3.314423,-1.024872 3.181976,-4.032654l-0.117111,-2.661072l0.907028,0.097687c0.893143,0.096161 0.901581,0.077209 0.554153,-1.236847c-0.194138,-0.7341 -0.627762,-2.062347 -0.963547,-2.95163c-0.628494,-1.664459 -0.470581,-2.617554 0.377518,-2.278046c0.657349,0.263031 2.468277,3.109558 3.531784,5.5513c0.971115,2.229797 2.519211,9.793182 2.531525,12.368378c0.012177,2.541779 -0.454102,3.38147 -3.888794,7.002625c-3.27211,3.449768 -4.137299,4.882294 -3.589081,5.942627c0.441818,0.854584 1.778214,2.098633 3.624847,3.374481c1.985611,1.371887 2.945572,2.686676 2.771912,3.796417c-0.128647,0.822174 -0.150787,0.813599 -0.792328,-0.310944c-0.440598,-0.772034 -0.879303,-1.124481 -1.319611,-1.060181c-0.589233,0.086212 -0.661621,0.398529 -0.677719,2.923737l-0.018021,2.827209l-1.434387,0.108368c-1.567276,0.118347 -2.462387,1.006927 -2.462387,2.444c0,0.9198 0.550659,1.016205 1.504868,0.26355c0.361816,-0.285431 0.872665,-0.51889 1.135345,-0.51889c0.631409,0 0.404678,2.471802 -0.405228,4.417511l-0.588303,1.413635l1.756348,-1.851563c0.965881,-1.018372 1.891495,-1.764404 2.056747,-1.657715c0.859299,0.553711 -0.488037,4.090424 -3.41069,8.953125c-0.748108,1.244781 -1.450912,2.835022 -1.56163,3.534027c-0.318466,2.009216 -0.41127,2.155914 -1.508041,2.384796c-1.077805,0.224731 -1.690247,1.008728 -1.690247,2.163513c0,1.427582 -2.135162,4.989685 -4.916534,8.202179c-1.595963,1.843414 -3.34375,4.149384 -3.883896,5.124268c-0.540161,0.975098 -2.290344,3.356049 -3.889282,5.29129c-1.59903,1.935242 -2.855133,3.68457 -2.791473,3.88739c0.063629,0.20285 0.59758,0.418549 1.186508,0.479279c1.179581,0.121582 2.096161,1.177704 2.096161,2.415283c0,0.428009 -0.478119,2.022705 -1.0625,3.543701c-0.58429,1.521027 -1.503693,4.514893 -2.043152,6.652954c-1.75975,6.975281 -2.950256,9.910828 -5.460663,13.464355l-1.522705,2.155487l2.207611,2.059357c2.396652,2.235718 3.457138,4.158417 3.468857,6.289246c0.004181,0.742859 -0.364319,3.048859 -0.818695,5.124207c-1.618912,7.393524 -2.024994,12.879486 -2.725922,36.816437c-1.264618,43.187042 -1.124878,40.389008 -2.09166,41.868134c-1.236099,1.891296 -0.095535,19.165955 1.740067,26.355408c3.54039,13.866455 3.643143,14.151794 6.090317,16.907715c0.795334,0.895569 1.619781,1.975647 1.832169,2.400269c0.470093,0.939636 0.50296,2.130493 0.063232,2.290955c-0.177567,0.064758 -0.423157,0.776733 -0.545776,1.582092c-0.208649,1.370422 -0.136703,1.551758 1.120468,2.827209c1.077759,1.093384 1.392242,1.712158 1.590317,3.129883c0.308456,2.206177 1.226822,4.424988 2.555893,6.17511c2.282288,3.00531 7.234787,18.320251 7.699615,23.809753l0.204849,2.419678l-56.724503,-0.187012c-33.979095,-0.112183 -57.587723,-0.324768 -58.877213,-0.530273c-2.656944,-0.423401 -3.056007,-0.771912 -2.286217,-1.997192l0.575043,-0.915588l-2.134186,1.126831c-1.173874,0.619568 -2.896675,1.349915 -3.828529,1.622742c-2.38662,0.69928 -9.836906,0.945251 -11.351471,0.374878zm61.331772,-300.081696c0,-0.72403 -1.330673,-2.344788 -1.924957,-2.344788c-0.3983,0 -0.465683,0.227661 -0.287109,0.969818c0.128448,0.533478 0.392334,1.169647 0.586517,1.413666c0.472794,0.594086 1.625549,0.56662 1.625549,-0.038696zm179.954224,298.349579c-0.467377,-2.520325 -1.052002,-3.682251 -2.012787,-4.000244c-1.34726,-0.445862 -1.520355,-1.865784 -1.287842,-10.558594c0.209656,-7.839294 0.857086,-17.56311 1.544739,-23.206177c0.902863,-7.407288 0.745483,-15.757935 -0.482758,-25.621399c-1.423492,-11.431946 -1.651001,-16.252136 -1.659149,-35.16333c-0.01001,-23.302277 0.436127,-30.826813 2.860107,-48.239014c3.192444,-22.931549 3.21756,-23.311218 3.200165,-48.415741c-0.015717,-22.566254 -0.150085,-25.586853 -1.666473,-37.460419c-1.147949,-8.989136 -1.62854,-14.580109 -1.374756,-15.991272c0.193146,-1.073547 0.313934,-1.189148 1.044281,-0.997925c1.02005,0.267059 1.052582,-0.21521 0.299042,-4.440735c-0.582336,-3.266327 -3.116119,-13.059784 -3.480103,-13.451752c-0.126984,-0.136658 -1.957825,1.010986 -4.068665,2.550385c-2.110779,1.539459 -5.235626,3.534149 -6.944183,4.432831c-1.708496,0.898621 -3.218964,1.818359 -3.356445,2.043793c-0.137573,0.225433 -0.252411,1.069305 -0.255371,1.875275c-0.006927,1.983398 -1.574219,3.477448 -4.015259,3.827545c-1.003632,0.144012 -1.936035,0.519897 -2.284027,0.920837c-0.941986,1.085693 -2.159851,0.805145 -5.509888,-1.269257c-5.182281,-3.208954 -5.511353,-3.337097 -9.974091,-3.882935c-4.564667,-0.558319 -9.583771,-1.778473 -12.678406,-3.082184c-2.093353,-0.881805 -4.541901,-2.298401 -9.032166,-5.225403c-3.085449,-2.0112 -5.162323,-2.529846 -6.492188,-1.621063c-0.72641,0.496429 -0.845306,0.840546 -0.838013,2.425659c0.004669,1.015991 0.359009,3.521362 0.787506,5.567627c0.428528,2.046204 0.718964,3.908478 0.645447,4.13858c-0.084686,0.264862 -0.506683,0.340454 -1.150665,0.206177l-1.016907,-0.212189l0.241791,1.374542c0.133057,0.755981 0.752197,2.885254 1.375824,4.731781c1.972198,5.838409 1.349915,5.647186 -1.725494,-0.53009c-1.064423,-2.138062 -2.361298,-4.364441 -2.881897,-4.947571c-1.398865,-1.566833 -1.764832,-2.504944 -2.064758,-5.294312c-0.310638,-2.889618 -1.195831,-5.484406 -1.870758,-5.484406c-0.601196,0 -1.224915,2.353088 -2.482208,9.365051c-1.415558,7.894745 -1.686279,10.277283 -1.93689,17.044708c-0.437225,11.808594 0.922333,19.196075 5.443848,29.581238l0.913239,2.097534l-1.633057,-1.889587c-3.905792,-4.519348 -4.567108,-5.993225 -6.405548,-14.275299c-1.826965,-8.230469 -2.2612,-12.962738 -1.836426,-20.012909c0.500854,-8.311646 0.749786,-10.601929 1.152405,-10.60257c0.205566,-0.000397 0.802734,-0.70871 1.326935,-1.574127c0.849091,-1.401917 0.952515,-1.893677 0.946991,-4.50531c-0.003387,-1.612488 -0.390381,-6.376251 -0.860046,-10.586426c-0.94693,-8.489777 -1.66925,-11.378448 -4.654663,-18.614563c-2.012054,-4.876587 -3.670593,-9.455597 -3.670593,-10.133148c0,-0.305023 0.332642,-0.459534 0.898834,-0.417572c0.730011,0.054016 0.950531,-0.128601 1.173767,-0.971802c0.346466,-1.309082 -0.17276,-5.341461 -1.276947,-9.917145c-1.253357,-5.19397 -1.520355,-8.741669 -1.090271,-14.489288c0.203583,-2.721222 0.480347,-5.072296 0.614899,-5.22464c0.134583,-0.152374 1.284637,1.638733 2.555786,3.980194c1.271088,2.341461 2.368958,4.196777 2.439758,4.122894c0.07074,-0.073853 -0.039429,-0.910645 -0.245239,-1.85968c-0.514771,-2.376343 -1.345001,-9.480865 -1.335693,-11.430756l0.007751,-1.603638l1.166748,1.943634c0.641815,1.069122 1.956055,3.573761 2.920563,5.566071c0.964539,1.99234 1.956848,3.622284 2.205139,3.622284c0.569611,0 6.900574,-5.305511 11.946838,-10.011841c7.067932,-6.59198 11.169586,-12.132294 16.396545,-22.147491c1.572418,-3.012726 3.368408,-6.352295 3.991058,-7.421402c1.471588,-2.526154 4.011749,-6.007767 4.383301,-6.007767c0.670929,0 6.068115,-5.743759 9.112061,-9.69693c4.049805,-5.260056 6.83316,-9.591217 8.214355,-12.783127c1.56076,-3.606796 3.758545,-6.599716 6.501984,-8.854248c1.342346,-1.103226 2.508759,-2.062866 2.591888,-2.132553c0.083069,-0.069748 -0.984314,-1.332855 -2.371948,-2.806976c-1.666962,-1.770844 -3.139313,-2.970718 -4.339233,-3.536377c-0.99884,-0.470886 -2.992706,-1.899109 -4.430786,-3.173904c-1.437958,-1.274796 -4.123291,-3.217209 -5.967224,-4.316452c-2.030334,-1.210434 -3.552704,-2.372681 -3.859985,-2.946854c-0.455048,-0.850342 -0.427368,-1.980545 0.269226,-10.955414c1.295929,-16.698532 1.797638,-20.39325 3.632111,-26.750122c0.638062,-2.211288 1.163513,-4.3582 1.167664,-4.770874c0.00412,-0.412689 0.301514,-1.426285 0.661133,-2.252319c0.512756,-1.178253 0.834198,-1.501968 1.491547,-1.501968c0.807648,0 0.835724,-0.079071 0.778992,-2.196915c-0.051056,-1.901886 0.027527,-2.215118 0.584534,-2.33316c0.413116,-0.087448 1.044067,0.319626 1.76178,1.136703c1.719971,1.958084 2.821198,1.628281 2.214478,-0.663223c-0.18042,-0.68132 -0.209045,-1.315536 -0.063629,-1.409241c0.460419,-0.296783 5.176514,1.222092 7.679535,2.473328c4.374603,2.186859 7.375549,5.009369 10.564514,9.936539c1.412781,2.182785 3.160889,3.654999 4.347839,3.661407c2.365112,0.012802 6.939362,3.857162 11.139191,9.361649c6.344574,8.315567 11.710388,18.147568 15.953064,29.231003c2.400909,6.272064 3.73233,8.574081 6.825012,11.799484c4.059357,4.233643 14.64743,12.7453 17.649841,14.188324c2.042877,0.981903 3.309998,0.959381 6.844391,-0.121613c3.199829,-0.978653 10.302765,-0.903137 15.756531,0.167648c5.751221,1.129105 11.691559,2.728073 15.24826,4.104385c4.898499,1.895508 6.388702,2.255371 13.20105,3.187729c11.719208,1.603897 19.833832,3.321747 22.571899,4.778717c0.704071,0.374557 3.056641,1.800018 5.227783,3.167542c2.171326,1.367569 4.584351,2.822556 5.362396,3.233292c2.065765,1.090591 10.627747,7.083588 14.402588,10.081192c1.792786,1.423721 3.415985,2.587997 3.607117,2.587219c0.746063,-0.002884 2.528595,-1.445267 6.012909,-4.865768c6.07666,-5.965317 7.946472,-6.95575 13.138794,-6.959274c4.032471,-0.002838 6.903381,0.874023 10.743713,3.281158c3.559631,2.231339 6.035706,4.447021 9.223938,8.253815c3.324097,3.968964 4.673828,6.640411 7.508728,14.861389c1.279358,3.709747 2.639954,7.093445 3.023621,7.519257c0.389771,0.43277 1.505371,0.96286 2.529236,1.201752c4.44165,1.036743 5.692993,3.429871 7.132019,13.639252c1.603271,11.374939 7.227051,23.910736 11.100464,24.744324c2.458313,0.528931 4.328674,2.482239 8.284607,8.651917c3.206848,5.001434 4.319885,7.936554 7.168945,18.906921c1.660583,6.393921 3.208862,14.332672 3.963196,20.320435c0.738098,5.860443 0.495483,12.867584 -0.691711,19.967102c-1.647766,9.85379 -1.526978,13.030121 0.765442,20.138794l1.255188,3.892395l0.2099,-2.650452c0.115295,-1.457733 0.230469,-4.876923 0.255981,-7.598114c0.025146,-2.72113 0.143372,-6.48349 0.262634,-8.360748l0.216736,-3.413269l2.527283,0.92923c5.044861,1.854736 7.599731,6.42868 8.920288,15.969086c0.59845,4.323792 0.507385,15.461182 -0.176392,21.557465c-1.823181,16.258026 -3.919983,21.070709 -14.010925,32.159332c-7.331665,8.056427 -7.870422,9.015106 -12.716492,22.63266c-5.359375,15.06012 -9.939697,25.165405 -13.448425,29.670532c-1.135376,1.457733 -2.41626,3.455261 -2.84668,4.438812c-0.430176,0.983704 -1.925354,3.130646 -3.322571,4.770996c-1.397217,1.64035 -3.390137,4.362518 -4.428772,6.049286c-1.038635,1.686584 -2.193848,3.237244 -2.567139,3.445557c-1.214355,0.677795 -2.206543,0.43811 -3.151733,-0.761353l-0.903503,-1.146606l-1.866028,0.66156c-1.026306,0.36377 -2.099854,0.56781 -2.385742,0.453491c-0.285889,-0.11438 -0.906982,-0.847778 -1.380249,-1.629517c-1.186523,-1.960449 -2.17865,-2.538208 -4.891541,-2.848755c-1.283447,-0.147034 -2.503113,-0.376465 -2.710327,-0.510071c-0.682373,-0.439819 -0.39447,-1.211182 0.809204,-2.168671c2.100098,-1.670471 1.275391,-2.968628 -1.475952,-2.323944c-2.29364,0.537445 -2.421875,-0.031158 -0.990356,-4.38974c0.666199,-2.028198 1.0896,-3.687714 0.940979,-3.687714c-0.148621,0 -1.017517,0.852783 -1.930847,1.894989c-1.694885,1.934113 -2.46936,3.784271 -2.478882,5.920807c-0.006836,1.533997 -0.72345,4.584839 -1.61853,6.889832c-1.023987,2.63739 -1.807373,6.864929 -2.055237,11.09259l-0.217773,3.710632l-2.880188,-3.811707c-4.051025,-5.361145 -4.89209,-7.168518 -4.845093,-10.412659c0.020447,-1.409119 -0.097046,-2.562134 -0.260986,-2.562134c-0.164001,0 -0.549316,0.506714 -0.856445,1.126099c-0.927185,1.870178 -0.47406,4.532043 1.65448,9.716919c1.022827,2.491394 2.045593,5.178528 2.272888,5.971252c0.227356,0.79248 1.306641,2.610168 2.398438,4.039063c1.477844,1.933594 2.053345,3.010681 2.25116,4.213074c0.285645,1.735901 0.32782,13.32135 0.159668,43.84668c-0.07605,13.822754 0.004517,19.659302 0.285645,20.673767c0.843567,3.044006 0.812378,3.614197 -0.25946,4.731934c-1.101501,1.148865 -3.46228,1.975464 -4.709534,1.649109c-1.01947,-0.266968 -1.037415,-1.194946 -0.12384,-6.381042c0.372742,-2.115906 0.67157,-5.048828 0.664185,-6.517639c-0.013184,-2.594238 -0.028442,-2.642273 -0.529663,-1.677734c-0.283936,0.546082 -0.712891,2.576782 -0.953247,4.512817c-0.240356,1.935852 -0.548645,3.635986 -0.68512,3.777832c-0.41095,0.427612 -1.834961,-1.594299 -2.248779,-3.193054c-0.587219,-2.269043 -0.976868,-5.471802 -0.984436,-8.091553c-0.008484,-2.913391 -0.829834,-7.533569 -1.540649,-8.664856c-0.444702,-0.708008 -0.715149,-0.809448 -1.662354,-0.623962c-0.622131,0.121582 -1.208038,0.087585 -1.302032,-0.075684c-0.093933,-0.163208 -0.004944,-1.131897 0.197693,-2.152771c0.274109,-1.380859 0.268219,-1.960693 -0.023071,-2.264465c-0.603058,-0.628906 -1.316315,0.189148 -1.562134,1.791443c-0.275665,1.798523 -1.134094,2.163208 -2.161041,0.918274c-0.419861,-0.509094 -0.763275,-1.155334 -0.763275,-1.436096c0,-1.082703 -0.669678,-0.439087 -1.031769,0.991577c-2.141357,8.463867 -5.919525,15.741333 -10.789276,20.782776c-4.299683,4.451355 -6.138031,5.513062 -6.138031,3.54541c0,-1.299133 -0.622528,-1.106812 -2.878479,0.889099l-2.250244,1.991089l0.181793,-1.19104c0.100006,-0.655029 0.355408,-2.916321 0.567871,-5.024902c0.212219,-2.108643 0.744049,-5.044434 1.181702,-6.523865c0.437683,-1.479553 0.723236,-2.765625 0.63446,-2.858215c-0.333588,-0.347961 -4.199066,4.196838 -5.037903,5.923218c-0.863373,1.776917 -2.194946,2.875183 -3.486084,2.875183c-0.338898,0 -1.830444,0.63623 -3.314178,1.413696c-1.483978,0.777405 -2.891541,1.413574 -3.127991,1.413574c-0.792999,0 -0.454254,-2.375122 1.070221,-7.501282c2.746277,-9.234863 4.992554,-17.374146 5.780914,-20.947449c0.428772,-1.943665 1.086548,-4.739624 1.461487,-6.213196c0.791321,-3.109558 1.967957,-11.889587 1.639313,-12.232361c-0.416809,-0.434692 -1.19574,1.116882 -2.873474,5.723145c-2.645966,7.264954 -11.212555,35.366211 -13.000488,42.645691c-0.56076,2.283081 -0.935913,3.180847 -1.392029,3.331726c-2.248962,0.744568 -11.459564,0.911621 -59.902435,1.087097l-53.402008,0.193542l-0.416809,-2.248352zm222.59903,-62.09137c0,-0.215332 0.381165,-1.290344 0.847107,-2.38916c1.039185,-2.450745 1.093933,-3.867615 0.169434,-4.383545c-0.372742,-0.208069 -0.677612,-0.576965 -0.677612,-0.819824c0,-0.854858 -2.003845,-1.749268 -3.397766,-1.516785c-1.663635,0.277527 -3.040466,-0.253357 -3.040466,-1.17218c0,-0.384521 1.862427,-3.29071 4.138672,-6.458252c7.987976,-11.115723 12.858582,-20.240387 16.740051,-31.361572c1.711609,-4.903412 2.886963,-9.313904 5.362305,-20.121155c2.604126,-11.370056 4.536194,-18.555939 7.113342,-26.456299c1.953369,-5.988403 2.985779,-8.412537 4.681641,-10.99234l1.010132,-1.536682l1.651367,1.696259c1.670105,1.715729 2.332031,3.123657 2.225464,4.734436c-0.052734,0.798126 0.080627,0.893982 1.380066,0.992157c2.237366,0.168915 2.256958,0.276917 2.001648,11.014313c-0.558777,23.496338 -3.108826,40.19635 -8.419678,55.139496c-1.909241,5.371979 -7.400024,16.750763 -9.411133,19.503143c-3.439636,4.707458 -11.235107,10.716858 -17.047668,13.14209c-2.58667,1.079285 -5.326904,1.586304 -5.326904,0.985901zm-414.563507,-14.86908c-0.38382,-0.647705 0.263138,-1.464355 2.119217,-2.675293c2.11232,-1.377991 6.80809,-3.516846 7.085663,-3.227417c0.600571,0.626282 -1.074539,2.145752 -5.400589,4.899048c-2.026978,1.289917 -3.417236,1.656738 -3.804291,1.003662zm104.057373,-63.108063l-2.018585,-2.291351l-1.464508,1.407867c-1.289001,1.239258 -1.662048,1.407837 -3.112244,1.407837c-2.157669,0 -4.92041,-1.439056 -8.068832,-4.203125c-2.478104,-2.175415 -5.318085,-5.573608 -5.044327,-6.035645c0.085449,-0.144196 0.94165,-0.359283 1.902405,-0.478088c4.262039,-0.526367 5.244675,-3.372803 3.5345,-10.237579c-0.460587,-1.848969 -1.084976,-4.053162 -1.387589,-4.89798c-1.332245,-3.720337 -0.866745,-4.547363 1.682617,-2.989136c2.522446,1.541718 5.964096,6.648621 5.964096,8.849915c0,1.214966 0.620712,1.478088 1.449173,0.614105c0.636749,-0.664001 0.670135,-0.909821 0.354614,-2.605072c-0.191528,-1.029449 -0.707077,-3.241943 -1.145584,-4.916779c-0.742416,-2.835114 -0.758682,-3.085114 -0.235733,-3.630585c0.523102,-0.545441 0.590012,-0.530396 0.972107,0.217651c0.777313,1.521881 2.859161,2.800995 5.016571,3.082184c0.82373,0.107269 1.553131,0.370209 1.620819,0.584137c0.06778,0.213928 -0.496796,1.16806 -1.254425,2.120331c-1.715698,2.156342 -1.715912,3.235413 -0.000458,4.080078c0.652191,0.321198 1.888794,0.68219 2.747833,0.802002c1.612732,0.224976 2.513794,0.931854 2.725891,2.138641c0.109192,0.62085 0.270935,0.554871 1.516205,-0.6185c1.727722,-1.62793 2.635376,-1.684235 3.367004,-0.208832c0.637329,1.285492 0.517761,3.231201 -0.344666,5.604218c-0.316681,0.871552 -0.935944,3.416016 -1.376251,5.654449c-1.348663,6.857056 -2.326355,8.840668 -4.35733,8.840668c-0.827606,0 -1.4133,-0.440948 -3.043304,-2.291412zm-16.060104,-12.78537c-0.580673,-0.244354 -0.552017,-2.239746 0.032181,-2.239746c0.691544,0 1.686005,1.315277 1.459625,1.930573c-0.199677,0.542725 -0.693481,0.645142 -1.491806,0.309174zm-146.123711,-9.416931c-0.003204,-1.044312 0.125557,-1.615295 0.333664,-1.481079c0.430946,0.277618 0.430946,1.955048 0,2.650391c-0.23719,0.382904 -0.329933,0.058258 -0.333664,-1.169312zm166.539436,0.283661c-0.745514,-0.480774 -1.622223,-0.973816 -1.948425,-1.095642c-0.48291,-0.180328 -0.592926,-0.651764 -0.592926,-2.53891l0,-2.317535l0.931824,0.856781c0.512512,0.471161 1.254272,1.246277 1.648407,1.722351c0.394073,0.476105 1.232788,1.046051 1.863678,1.266632c1.244415,0.434967 1.685486,1.572418 0.962158,2.481415c-0.576202,0.723999 -1.309326,0.628021 -2.864716,-0.375092zm-7.80899,-10.583771c-1.012177,-1.055573 -1.112244,-2.313141 -0.184174,-2.313141c0.713867,0 2.402161,1.881958 2.402161,2.677643c0,0.799133 -1.30835,0.584167 -2.217987,-0.364502zm-4.04126,-6.606598c-2.849884,-3.532257 -5.876144,-13.149109 -6.43367,-20.444489c-0.149292,-1.953156 -0.503845,-3.635986 -1.013657,-4.810883c-0.751984,-1.73291 -1.168869,-2.170898 -4.589813,-4.821198c-1.540222,-1.193329 -2.036118,-2.169952 -1.425064,-2.80722c0.484253,-0.504974 1.552673,0.171509 4.309708,2.728882c1.307877,1.213013 2.680252,2.26413 3.049667,2.335632c0.934326,0.180939 3.004745,4.425964 3.861435,7.917572c0.379898,1.547882 1.150772,5.438538 1.713043,8.64563c0.562317,3.207062 1.328308,6.943787 1.702454,8.303711c1.133057,4.119812 0.682281,5.253326 -1.174103,2.952362zm16.981232,-18.334076c-0.532471,-0.166504 -1.253571,-0.572021 -1.602356,-0.901215c-0.990753,-0.93515 -2.55188,-5.803436 -1.860962,-5.803436c0.078552,0 1.454712,0.715576 3.057922,1.590332c1.603394,0.874695 3.269867,1.59024 3.703491,1.59024c1.533569,0 5.864441,2.85788 5.433319,3.58548c-0.230011,0.388062 -7.455841,0.33725 -8.731415,-0.061401zm-15.098419,-24.639679c-0.953766,-3.757324 -1.420319,-10.690338 -0.71933,-10.690338c0.69754,0 1.707153,5.46228 1.707153,9.236694c0,2.97583 -0.437958,3.620331 -0.987823,1.453644zm-3.39798,-26.039154c-0.598526,-0.752258 0.002289,-2.595062 1.71991,-5.274719c1.260803,-1.96701 1.553741,-2.236542 2.09964,-1.931946c0.657013,0.366791 0.656494,0.424927 -0.033356,3.64856c-0.718964,3.359497 -2.564285,5.093689 -3.786194,3.558105zm-57.030609,-28.496796c-0.698837,-0.384857 -1.270721,-0.809113 -1.270721,-0.942963c0,-0.13385 0.38559,-0.567322 0.85672,-0.963348c1.113159,-0.935791 1.407288,-3.380432 0.833847,-6.932739c-0.312561,-1.937103 -0.926315,-3.638367 -2.348267,-6.509827c-2.024673,-4.088135 -2.993942,-6.734528 -2.61264,-7.132324c0.577911,-0.602692 4.198822,4.010773 6.425751,8.187531c1.872284,3.511688 2.964371,6.993317 3.160629,10.076965c0.143631,2.256622 0.065384,2.821045 -0.527313,3.798981c-0.588272,0.970825 -0.893387,1.146149 -1.971603,1.132996c-0.701706,-0.008606 -1.847534,-0.330475 -2.546402,-0.715271zm65.594543,-0.603149c-0.218018,-0.144623 -0.9711,-1.372986 -1.673767,-2.729706c-0.702606,-1.356598 -2.532715,-4.476196 -4.067108,-6.93219c-1.534439,-2.456116 -3.240097,-5.399811 -3.790527,-6.541656c-0.945145,-1.960876 -1.670654,-4.373199 -1.315338,-4.373199c0.089157,0 1.038605,1.470978 2.109818,3.268921c1.071198,1.797852 2.866501,4.528198 3.989639,6.067413c2.226593,3.051239 6.32962,10.183868 6.32962,11.003235c0,0.540955 -0.917084,0.678589 -1.582336,0.237183zm-77.049118,-2.49408c-0.828552,-0.550446 -2.085022,-1.671906 -2.792206,-2.492188c-2.401718,-2.785828 -2.509064,-4.33725 -0.514267,-7.435516l1.418961,-2.203888l-0.586929,-2.297638c-0.906158,-3.546387 -2.152161,-10.179138 -2.744827,-14.611633c-0.612701,-4.581329 -0.364349,-5.507141 1.001999,-3.735443c1.533676,1.988892 2.985229,5.723907 4.13118,10.629547c0.635727,2.721069 1.462036,5.813812 1.836456,6.872772c0.803711,2.273468 2.769089,5.191467 3.705368,5.501404c0.713272,0.236145 0.834305,0.924133 0.682495,3.882202c-0.152802,2.979218 -1.395828,5.265472 -3.476929,6.394745c-1.145233,0.621521 -0.895569,0.668823 -2.661301,-0.504364zm27.46524,-52.100708c-0.465988,-0.252533 -1.048141,-0.896332 -1.293823,-1.430664c-0.685791,-1.491699 -0.010056,-3.021057 2.494614,-5.646179c2.842209,-2.97879 2.851349,-3.431274 0.070511,-3.489502c-1.792618,-0.037537 -3.931732,1.042145 -9.762512,4.927368c-5.355209,3.568329 -7.457993,4.670441 -8.912018,4.670441c-1.312378,0 -1.717834,-0.615051 -1.250565,-1.897064c0.305389,-0.837708 1.063187,-1.548981 3.611923,-3.390503c1.209915,-0.874146 1.415237,-1.217072 1.566483,-2.61673c0.125916,-1.164978 0.701736,-2.460144 2.080856,-4.680634c1.937561,-3.119415 2.409378,-4.934158 1.483109,-5.70401c-0.23288,-0.193741 -1.183304,-0.46701 -2.111801,-0.607422c-2.425781,-0.36673 -5.03743,-1.471954 -11.187958,-4.734512l-5.421677,-2.876022l5.760422,0.181702c3.16835,0.099808 7.971542,0.252731 10.673828,0.339554l4.91333,0.158142l-3.727371,-0.825058c-6.595566,-1.459854 -9.305008,-2.961914 -10.055573,-5.574554c-0.304596,-1.060608 -0.674286,-1.562805 -1.344574,-1.826599c-0.798386,-0.314392 -0.897079,-0.506973 -0.723465,-1.411942l0.200943,-1.047913l-2.679321,0.220261c-1.473602,0.121185 -4.585342,0.634674 -6.914856,1.141113c-3.243317,0.705017 -4.75,0.869385 -6.430679,0.701782c-2.442932,-0.243698 -3.114365,-0.696625 -4.140152,-2.792847c-0.780609,-1.595261 -0.520538,-1.960052 1.421783,-1.994095c2.107697,-0.037048 4.1064,-0.59465 5.200211,-1.45079c0.980331,-0.76738 1.320038,-0.824265 4.118134,-0.68927c5.960968,0.287613 6.371384,0.255981 7.492554,-0.578003c1.868454,-1.390152 9.627121,-2.193481 23.173416,-2.399567c9.995056,-0.1521 13.049835,-0.454651 16.249832,-1.609665c2.211914,-0.798279 2.725662,-0.705322 2.725662,0.493256c0,1.076782 -2.253723,4.978088 -3.896713,6.745575c-2.556793,2.750534 -2.987183,2.852219 -12.198608,2.882294c-9.882019,0.032501 -10.673798,0.066605 -10.673798,0.460663c0,0.32811 1.293289,0.917618 2.710785,1.235611c0.466003,0.104614 1.15213,0.432587 1.524796,0.728882c1.199097,0.95314 0.021866,1.298843 -4.037384,1.185501c-2.640762,-0.073746 -3.737289,0.017471 -3.833939,0.318649c-0.351486,1.095551 5.913345,1.796631 17.224716,1.927811l8.336868,0.096558l3.606064,-3.400681c6.801163,-6.413834 9.849686,-8.41069 12.840942,-8.41069c2.685593,0 3.30574,0.600311 3.30574,3.200607c0,1.155228 0.137054,2.100327 0.304825,2.100327c0.167572,0 1.116531,-0.635986 2.108643,-1.413544c2.150757,-1.685425 3.685776,-1.915558 3.685776,-0.552475c0,0.626129 -0.665588,1.469788 -2.439331,3.092194c-6.472168,5.919983 -8.288284,8.234329 -10.656952,13.581177c-1.139832,2.573013 -1.804474,5.08313 -1.345779,5.08313c0.119354,0 1.35611,-1.101563 2.748215,-2.447769c2.919998,-2.823715 3.589203,-3.147095 4.800049,-2.319641c0.723785,0.494598 0.831894,0.77327 0.655899,1.690903c-0.489029,2.550262 -5.027908,5.849304 -12.193817,8.862854c-4.159164,1.749084 -7.614655,4.091492 -11.061432,7.498291c-4.041306,3.994476 -6.83432,5.357727 -8.796829,4.293701zm47.342758,-1.427673c-0.128784,-0.349731 -0.140625,-2.258087 -0.026245,-4.240784c0.348602,-6.041351 -0.908875,-11.556458 -2.634888,-11.556458c-0.789581,0 -0.792389,-0.051025 0.218964,3.88739c0.800323,3.11618 0.860229,7.555969 0.112427,8.335785c-0.516541,0.538849 -0.593201,0.520355 -1.059906,-0.255219c-0.276703,-0.459717 -0.589417,-2.108185 -0.694916,-3.663086c-0.105484,-1.554962 -0.421112,-4.570313 -0.70137,-6.700836c-0.280167,-2.130615 -0.466705,-3.918213 -0.41452,-3.972672c0.05217,-0.054398 0.972839,0.139648 2.046036,0.431229c4.44342,1.207092 10.027588,7.001282 10.027588,10.404846c0,0.590881 -0.139709,1.074341 -0.310394,1.074341c-0.170837,0 -1.137512,-0.953217 -2.148254,-2.118103c-1.010895,-1.164978 -1.938599,-2.013123 -2.061676,-1.884827c-0.122894,0.128326 -0.230133,1.280243 -0.238129,2.559875c-0.016693,2.673859 -1.703491,8.814819 -2.114716,7.698517zm-2.106323,-41.098175c-6.016205,-2.286346 -10.24498,-3.687988 -11.759232,-3.897461c-2.78598,-0.385468 -3.281265,-2.232498 -0.937576,-3.496567c1.297104,-0.699631 6.847458,-1.245865 10.324814,-1.016296c3.985214,0.263229 5.430618,0.737915 6.647598,2.183441c0.994171,1.18103 1.040344,1.368042 0.91394,3.701981c-0.200653,3.702423 -1.029724,4.105804 -5.189545,2.524902zm-25.667923,-2.994919c-1.01918,-0.626877 -0.706161,-1.668579 0.731308,-2.433472c2.92749,-1.557571 5.452942,-1.183228 4.236526,0.628036c-0.964737,1.436508 -3.858017,2.488052 -4.967834,1.805435zm-85.1698,-9.051758c-0.835373,-1.974976 -0.964661,-5.174423 -0.333008,-8.241028c0.300262,-1.457764 0.726196,-4.933441 0.946564,-7.72377c0.368713,-4.669067 0.462769,-5.115768 1.179718,-5.605713c0.972778,-0.66478 2.915283,-0.348511 3.850479,0.626801c1.244049,1.297394 0.522888,7.026764 -1.62114,12.879395c-0.498398,1.360596 -1.294861,3.971451 -1.769806,5.801926c-0.474899,1.830536 -1.047653,3.392105 -1.272736,3.470154c-0.225098,0.078079 -0.666122,-0.465424 -0.980072,-1.207764zm59.777191,-6.811996c-3.013565,-0.576584 -5.564163,-2.378387 -10.777969,-7.613525c-2.710129,-2.721191 -6.464432,-6.327042 -8.343018,-8.012985c-6.746002,-6.054703 -8.787491,-9.508774 -6.053955,-10.243332c0.56218,-0.151062 2.063797,-1.194122 3.336807,-2.317978c5.329941,-4.705246 5.784271,-4.950607 7.014786,-3.789108c0.321259,0.303177 1.553116,0.924377 2.737473,1.380447c1.184418,0.456039 3.449493,1.398041 5.033676,2.093246c1.584122,0.695267 3.077759,1.2668 3.31929,1.270111c0.247543,0.003326 -0.08493,-0.709915 -0.762436,-1.635178c-1.379425,-1.88414 -1.509247,-2.599686 -0.471664,-2.599686c1.086197,0 4.861572,2.320755 5.249176,3.22673c0.207214,0.484222 0.849716,0.937378 1.668747,1.177002c1.274292,0.372818 1.332687,0.453873 1.352814,1.876892c0.015732,1.107727 0.3284,1.947098 1.225494,3.289413c1.218796,1.823837 4.517639,4.919357 5.242386,4.919357c0.971527,0 5.120117,-6.223862 6.25238,-9.380127c0.593246,-1.65358 0.959564,-2.083313 2.947678,-3.457077c2.611771,-1.804886 3.59819,-2.825394 4.12059,-4.263336c0.479431,-1.319656 0.307587,-1.453201 -0.978058,-0.759857c-0.971771,0.524109 -1.070755,0.523361 -1.267044,-0.01033c-0.356308,-0.968521 0.197281,-8.587524 0.718536,-9.888641c0.602554,-1.503784 1.200668,-1.537018 2.442825,-0.135818c1.235855,1.394119 2.522751,2.097 3.839355,2.097c1.175537,0 2.710144,1.33902 2.715546,2.369354c0.007477,1.439392 1.659256,4.24408 3.574646,6.069839l1.992416,1.899139l-2.318802,4.729462c-2.686783,5.480103 -4.587723,8.398666 -5.947968,9.132324c-0.799362,0.431061 -1.026367,0.43927 -1.33754,0.048264c-0.504089,-0.633438 0.10495,-2.374359 2.489746,-7.116638c2.643158,-5.256302 2.516846,-6.55069 -0.340256,-3.484787c-1.891464,2.029678 -4.075745,5.887192 -5.1772,9.142853c-0.720383,2.129227 -0.830658,3.035599 -0.783112,6.435257c0.041824,2.983231 -0.05661,4.026779 -0.399506,4.240753c-0.250244,0.156113 -0.964783,1.289841 -1.587891,2.51944c-1.868256,3.686554 -3.897949,5.047256 -9.312881,6.243423c-2.942032,0.649887 -9.2901,0.954651 -11.41507,0.548096zm-13.009323,-46.514664c-0.125092,-0.695282 -0.160217,-3.461334 -0.078033,-6.146881c0.116791,-3.817154 0.275787,-5.083817 0.728195,-5.803925c0.698532,-1.111938 1.205902,-1.152725 2.378052,-0.191101c1.853699,1.520676 2.357422,6.164551 1.029465,9.489548c-0.561218,1.405151 -2.745224,3.916428 -3.406143,3.916428c-0.233276,0 -0.526474,-0.568863 -0.651535,-1.264069zm35.279236,-6.712677c-0.313293,-2.615128 -0.897202,-3.980057 -2.678238,-6.26059c-2.180176,-2.791626 -2.46788,-3.450165 -1.747589,-3.999496c1.924088,-1.467361 5.600174,4.461731 5.600174,9.032608c0,3.609558 -0.790039,4.435333 -1.174347,1.227478zm116.071136,-19.681946c-0.451202,-0.240158 -0.874969,-0.609161 -0.941498,-0.820084c-0.168427,-0.533356 1.388062,-2.090195 3.794861,-3.795731c4.769836,-3.379929 6.587769,-5.80542 14.747528,-19.67527c7.762299,-13.194298 10.019257,-16.518867 10.718658,-15.789314c0.714722,0.745377 -0.255981,6.910706 -2.235565,14.198997c-0.739105,2.721191 -1.595642,6.377632 -1.903412,8.125465c-0.679718,3.859512 -1.69693,6.046097 -3.995575,8.588425c-5.240692,5.796326 -16.721405,11.010574 -20.184998,9.167511zm-224.853523,-98.169506c-10.015945,-0.675808 -14.683121,-1.226692 -16.302071,-1.924404c-0.649933,-0.280109 -1.946655,-1.654335 -3.382698,-3.585106c-1.280724,-1.721973 -3.280434,-4.303421 -4.443794,-5.736526c-1.521774,-1.874712 -2.401367,-3.379564 -3.135345,-5.364779c-1.591316,-4.303709 -3.740829,-12.986793 -3.740829,-15.11169c0,-0.678144 1.192757,-2.610897 4.063446,-6.584878c5.999306,-8.30509 13.364174,-19.985715 12.601387,-19.985715c-0.188141,0 -1.53685,0.471097 -2.997116,1.046905c-4.945305,1.949967 -7.774788,2.583647 -10.769875,2.41209c-1.946831,-0.111574 -3.154602,-0.385661 -4.216583,-0.956937c-2.106194,-1.133041 -4.65921,-3.724859 -4.898567,-4.97303c-0.135811,-0.708191 -0.630745,-1.324068 -1.550934,-1.929914c-0.74334,-0.489361 -1.497055,-1.173401 -1.67498,-1.52005c-0.3592,-0.699999 -0.798599,-3.837458 -1.563011,-11.160751c-0.280731,-2.689175 -0.609116,-5.056103 -0.729858,-5.259785c-0.146049,-0.246456 -1.465958,-0.288116 -3.945595,-0.124447l-3.726105,0.245899l0.23098,-1.506577c0.12709,-0.828629 0.671135,-2.309597 1.208916,-3.291c2.382477,-4.347294 2.733704,-5.226315 3.066795,-7.676075c0.761253,-5.597862 -0.761223,-16.626423 -3.235863,-23.440556c-0.49408,-1.360588 -1.105515,-3.700592 -1.35881,-5.199959c-0.25322,-1.499374 -0.773354,-3.822441 -1.156044,-5.162392c-0.382591,-1.339951 -0.695709,-2.755577 -0.695709,-3.145859c0,-1.146507 2.270065,-5.546501 3.708008,-7.187126c0.87928,-1.003212 1.851906,-2.835266 2.882256,-5.428955c1.657524,-4.172409 3.409248,-7.625366 3.868477,-7.625366c0.643303,0 1.424973,1.457954 2.735535,5.103088c1.906143,5.301277 2.970535,9.618317 3.403496,13.803757c0.433716,4.193802 0.630486,5.05999 2.407806,10.602028c0.747948,2.332413 1.523041,4.797371 1.722336,5.477646c0.199379,0.680328 0.733139,1.75383 1.186081,2.385582c1.103409,1.538918 1.805527,3.362114 1.805527,4.688629c0,1.492661 0.786163,2.951519 1.867622,3.465355c0.496002,0.235748 1.994232,0.602978 3.329163,0.816154c4.418373,0.705372 5.985237,1.060055 5.985237,1.354931c0,0.697964 -3.793869,2.722218 -8.40065,4.482265c-5.711456,2.182087 -11.463486,5.007713 -12.406746,6.094795c-0.935867,1.078487 -0.294968,0.944485 3.800606,-0.794601c1.992203,-0.846027 4.079697,-1.65033 4.638779,-1.787441c1.922577,-0.471416 5.437256,-2.046722 12.706909,-5.695282c4.006821,-2.011036 8.886261,-4.234577 10.843163,-4.941154c5.658684,-2.043125 19.367134,-5.332394 30.157616,-7.235989c2.329514,-0.410965 6.487503,-1.296089 9.239975,-1.966927c5.569641,-1.357491 6.900818,-1.448006 10.019043,-0.681313c3.734177,0.918076 6.44313,3.059227 7.123886,5.630699c0.68483,2.586555 -2.531738,15.68354 -4.876663,19.856724c-0.475769,0.846687 -0.713577,1.539364 -0.528458,1.539364c0.185135,0 0.04245,0.675877 -0.317093,1.501976c-0.376175,0.864178 -0.656891,2.295063 -0.661133,3.369713c-0.009048,2.261086 -0.613937,3.329491 -2.557724,4.517555c-2.988998,1.826904 -15.428925,6.068682 -27.916748,9.51907c-6.205894,1.714769 -7.953362,2.417812 -7.731857,3.110897c0.073944,0.231215 0.911133,0.536921 1.860497,0.679436c5.440453,0.816601 20.56028,9.495783 25.835304,14.830256c1.212097,1.225709 2.9142,2.653655 3.782593,3.173194c1.458847,0.872808 1.608734,1.094675 1.971786,2.918553c0.496109,2.492619 -0.050919,5.644545 -3.349243,19.297904c-3.334946,13.804783 -5.061234,19.115503 -6.664841,20.503542c-0.34845,0.301617 -1.759628,0.595669 -3.499603,0.729176c-1.603607,0.123123 -3.754364,0.546276 -4.779404,0.940453c-5.520721,2.123043 -8.802063,3.202782 -10.165482,3.345078c-0.838638,0.087463 -5.641853,-0.118687 -10.67379,-0.45813zm39.237038,-1.4202c-1.475693,-0.46323 -2.13295,-1.566593 -2.13295,-3.581017c0,-3.87328 1.616806,-6.168301 11.409775,-16.196043c7.429855,-7.607853 11.801697,-11.372559 13.918762,-11.985713c2.720184,-0.787867 6.340622,-0.275866 12.42627,1.757271c9.330872,3.117275 22.924469,10.486535 26.094635,14.146184c1.81662,2.097118 1.588547,4.566128 -0.542084,5.868158c-3.125885,1.910173 -8.937851,3.646151 -12.255615,3.660578c-3.537003,0.015396 -11.279953,2.808395 -13.128845,4.735744c-1.143311,1.191902 -2.571106,1.192318 -11.370926,0.003326c-4.637604,-0.626633 -7.413864,-0.839733 -8.931793,-0.685604c-3.076752,0.312302 -7.692444,1.145348 -9.678452,1.74683c-2.398193,0.726219 -4.556656,0.923256 -5.808777,0.530285zm71.276245,-12.354448c-1.551376,-0.484911 -2.194504,-1.348845 -2.587173,-3.47562c-0.810089,-4.387121 -1.115768,-5.333471 -3.040619,-9.413563c-2.853531,-6.048203 -7.315491,-13.274162 -12.547501,-20.320451c-2.053513,-2.765587 -3.202255,-6.108173 -2.882431,-8.387257c0.275391,-1.962484 2.09433,-5.670279 4.29361,-8.752647c0.970734,-1.360607 5.014648,-5.825277 8.986267,-9.921547c3.97168,-4.096302 7.221298,-7.627506 7.221298,-7.847168c0,-0.219585 -0.561935,-0.509277 -1.248932,-0.643688c-1.21405,-0.237545 -15.585709,0.002228 -26.197891,0.437122l-5.252151,0.215183l-3.049698,-3.602379c-4.699387,-5.551174 -13.652908,-19.701847 -15.3927,-24.327511c-1.836578,-4.883492 -0.372009,-6.359673 8.615707,-8.684158c11.209946,-2.89917 14.94133,-3.313484 34.334763,-3.811966c18.44223,-0.474052 22.342422,-0.308517 29.877258,1.268448c7.630783,1.597015 11.209671,2.953148 16.224411,6.147919c2.845825,1.812981 4.542084,2.418236 5.809021,2.07267c1.73114,-0.472183 7.616943,1.61937 8.82312,3.135345c1.003998,1.261711 0.258881,6.262501 -1.496582,10.045059l-1.06601,2.297096l0,8.12822c0,6.144402 0.154419,9.191906 0.632813,12.486488c0.429047,2.95542 0.52179,4.474085 0.287964,4.717916c-0.707245,0.737545 -2.960632,-2.302385 -5.08548,-6.860571c-1.165894,-2.500851 -2.449799,-4.745132 -2.949066,-5.154667c-1.047791,-0.859547 -4.166504,-1.35001 -5.688873,-0.894615c-0.730377,0.218498 -1.121735,0.592232 -1.248413,1.192387c-0.137054,0.648418 -0.772247,1.182255 -2.45929,2.06665c-2.366302,1.240463 -4.122925,1.509712 -6.388824,0.979191c-1.04126,-0.243763 -1.364746,-0.150532 -2.287247,0.659019c-1.307678,1.147583 -1.39502,1.940277 -0.213837,1.940277c1.792252,0 3.814621,1.606964 9.506271,7.55385c6.085846,6.358589 9.387146,10.412399 10.578003,12.989417c0.980957,2.122593 1.857849,7.20229 1.97467,11.43943c0.05365,1.943664 0.279785,4.368679 0.502686,5.388921c0.319916,1.464285 0.314117,2.279538 -0.027466,3.871618c-1.717377,8.003675 -7.663605,14.931681 -12.826141,14.943872c-0.981171,0.002312 -2.927124,0.627699 -5.92981,1.90572c-4.808212,2.046473 -7.128937,2.691923 -9.678177,2.691923c-1.220291,0 -2.365936,0.379955 -4.665436,1.547201c-1.676437,0.850935 -3.845734,1.725655 -4.820709,1.943697c-2.045425,0.457506 -7.216034,0.477392 -8.637405,0.033167zm48.281952,-13.686569c-0.772308,-1.505089 2.091461,-6.46981 6.515991,-11.296349c2.04245,-2.227992 3.06955,-3.062914 4.40506,-3.581169c1.552094,-0.602251 1.797913,-0.843687 2.259369,-2.218919c0.718079,-2.140312 1.819336,-2.319977 2.574921,-0.420103c0.295349,0.742937 1.33313,2.384459 2.305969,3.647867c2.568634,3.335832 2.970917,4.080304 2.970917,5.497576c0,2.995438 -3.631989,5.017809 -13.958221,7.77227c-5.200012,1.387033 -6.608307,1.506258 -7.074005,0.598828zm25.471619,-9.153443c-0.29892,-0.81221 0.739655,-1.666226 6.064087,-4.986274c8.633179,-5.383399 19.403381,-11.195259 21.450012,-11.575106c1.119568,-0.207725 2.074646,0.249025 1.731384,0.828077c-0.120422,0.203363 -1.045563,0.62036 -2.055847,0.926641c-1.092773,0.331296 -3.320862,1.606181 -5.500061,3.147056c-6.337738,4.481238 -19.619141,12.245353 -20.94696,12.245353c-0.289948,0 -0.624146,-0.263596 -0.742615,-0.585747zm-238.71804,-98.976011c-1.168114,-1.395905 -2.738449,-5.843552 -3.321762,-9.408356c-0.347351,-2.122375 -2.181282,-7.43708 -4.774536,-13.836296c-0.708832,-1.749321 -1.384594,-3.800873 -1.501553,-4.559006c-0.135174,-0.875839 -0.56678,-1.713371 -1.183792,-2.297089c-0.534142,-0.50528 -1.493118,-1.418335 -2.131123,-2.028923c-1.321369,-1.264687 -1.749016,-2.739502 -1.016052,-3.503937c0.268951,-0.280548 0.630646,-0.510101 0.803772,-0.510101c0.418423,0 1.670067,1.320709 1.670067,1.762238c0,0.629837 2.489838,1.457611 5.421558,1.802483c3.940109,0.46347 4.92297,0.853073 5.773762,2.288834c0.39576,0.667938 0.95723,1.214417 1.247505,1.214417c0.521698,0 3.41291,2.331123 6.70211,5.403725l1.694328,1.582626l-0.068932,2.830048c-0.100876,4.147438 -0.916809,7.427727 -2.187645,8.795166c-0.572815,0.616402 -2.129196,3.312279 -3.458626,5.990822c-1.32946,2.678551 -2.580803,4.921951 -2.780777,4.985229c-0.199989,0.063339 -0.599686,-0.167046 -0.888306,-0.511879z" id="path5004" fill="#ff5656"/>
 </g>
</svg>